<svg width="132" height="40" viewBox="0 0 132 40" fill="none" xmlns="http://www.w3.org/2000/svg">
<path d="M97.966 22.542H101.704V21.044H97.966V18.16H96.202V25.342H94.242V20.456H92.59V25.342H91.078V26.84H102.978V25.342H97.966V22.542ZM96.762 14.016C95.362 16.116 92.8 17.782 90.294 18.762C90.714 19.14 91.19 19.742 91.428 20.176C93.458 19.252 95.446 17.936 97 16.284C98.904 18.314 100.752 19.336 102.684 20.176C102.88 19.672 103.328 19.084 103.734 18.734C101.746 18.034 99.8 17.082 97.966 15.15C98.064 15.024 98.162 14.884 98.26 14.758L96.762 14.016ZM108.648 24.502C107.794 25.02 106.17 25.496 104.77 25.692C105.106 26 105.54 26.546 105.75 26.896C107.192 26.56 108.872 25.832 109.824 25.034L108.648 24.502ZM112.414 25.202C113.59 25.692 115.228 26.434 116.04 26.896L117.216 25.986C116.32 25.538 114.668 24.838 113.534 24.418L112.414 25.202ZM113.002 17.726C112.806 18.062 112.512 18.482 112.288 18.804L112.792 18.958H108.97L109.726 18.776C109.614 18.482 109.39 18.076 109.166 17.726H113.002ZM111.812 22.668V22.052H116.012V20.848H111.812V20.218H116.67V18.958H113.968C114.22 18.706 114.514 18.398 114.822 18.062L113.506 17.726H117.202V16.424H115.396C115.746 15.934 116.124 15.304 116.516 14.66L114.766 14.254C114.57 14.856 114.192 15.71 113.87 16.27L114.374 16.424H113.128V14.142H111.56V16.424H110.51V14.142H108.97V16.424H107.682L108.354 16.172C108.172 15.64 107.71 14.8 107.29 14.212L105.862 14.688C106.184 15.22 106.548 15.892 106.758 16.424H104.854V17.726H108.424L107.486 17.936C107.668 18.244 107.878 18.636 108.004 18.958H105.428V20.218H110.16V20.848H106.128V22.052H110.16V22.668H104.826V24.04H110.16V27.232H111.812V24.04H117.244V22.668H111.812ZM120.758 19.7H123.628V14.548H122.13V18.244H120.758V14.254H119.288V19.784C119.288 21.828 119.19 24.544 118.378 26.28C118.714 26.504 119.26 26.994 119.526 27.288C120.254 25.958 120.562 24.138 120.688 22.318H122.018V27.176H123.53V20.848H120.744C120.758 20.484 120.758 20.134 120.758 19.784V19.7ZM125.546 25.748C126.022 24.25 126.176 22.472 126.218 20.918C126.568 22.038 126.974 23.074 127.506 23.998C126.932 24.726 126.288 25.328 125.546 25.748ZM129.396 19.84C129.172 20.806 128.85 21.716 128.43 22.528C127.996 21.702 127.632 20.792 127.366 19.84H129.396ZM130.18 18.272L129.9 18.328H126.232V16.438H131.006V14.94H124.678V19.882C124.678 21.814 124.566 24.642 123.572 26.434C123.964 26.616 124.566 27.05 124.86 27.33C125.098 26.938 125.294 26.504 125.448 26.042C125.77 26.378 126.148 26.882 126.344 27.246C127.142 26.77 127.856 26.14 128.472 25.412C129.06 26.112 129.732 26.7 130.516 27.148C130.768 26.728 131.272 26.084 131.65 25.776C130.81 25.356 130.068 24.754 129.452 24.026C130.306 22.57 130.894 20.764 131.202 18.594L130.18 18.272Z" fill="black"/>
<path d="M18.4791 20.6971C18.3985 20.1529 18.2776 19.6289 18.1566 19.0847C17.9349 18.1373 17.6931 17.2102 17.4109 16.3032C17.1892 15.5776 16.9675 14.8722 16.7457 14.1667C16.5845 13.6628 16.4031 13.1388 16.2217 12.6349C15.7178 11.2039 15.1736 9.77282 14.6093 8.36194C14.4077 8.48287 14.2062 8.6038 14.0046 8.74489C12.2511 10.0147 11.6867 11.8287 11.6867 13.7636C11.6867 14.3078 11.727 14.8722 11.8077 15.4365C11.9891 16.7063 12.3317 17.9761 12.6743 19.1048C12.8154 19.5684 12.9565 20.0521 13.1178 20.5157C13.279 21.0196 13.4604 21.5436 13.6418 22.0475C14.5085 24.4662 15.5163 26.8445 16.524 29.2027C17.8745 27.8321 18.6202 25.998 18.7008 24.0429C18.7613 22.9142 18.6605 21.8056 18.4791 20.6971Z" fill="#F7B52C"/>
<path d="M24.4856 12.9169C24.4654 12.3727 24.3848 11.8286 24.2437 11.3045C23.8406 9.77269 22.9336 8.40212 21.6436 7.43466C19.8699 6.10439 17.5722 5.66097 15.4559 6.26564C15.3551 6.28579 15.2745 6.3261 15.1737 6.34626C14.7706 6.48735 14.3675 6.64859 13.9845 6.85015C12.3116 7.73699 11.0217 9.22849 10.3969 11.0223C10.0744 12.0704 9.99376 13.179 10.0744 14.2875C8.52241 14.8317 7.03091 15.5372 5.74096 16.5046C3.88665 17.8752 2.63701 19.8706 2.19359 22.0877C2.09281 22.6117 2.01219 23.1358 1.99203 23.68C1.99203 23.7001 1.99203 23.7203 1.99203 23.7404C1.89126 26.6831 3.22152 29.5654 5.57971 31.3391C7.99837 33.1531 11.1628 33.6771 14.0249 32.6693C14.69 32.4275 15.3148 32.1251 15.9195 31.7623C16.383 31.4801 16.8265 31.1375 17.2497 30.7747C18.5195 29.646 19.487 28.215 19.9909 26.5622C20.6157 24.4862 20.4343 22.1885 20.0312 20.052C20.6359 19.7497 21.2002 19.407 21.7243 19.0039C23.4576 17.6938 24.4452 15.5976 24.5259 13.441C24.5057 13.2394 24.5057 13.0782 24.4856 12.9169ZM19.487 8.03932C21.0188 8.70445 22.1475 9.97425 22.6312 11.5262C21.0188 11.7479 19.4265 12.01 17.8342 12.3123C17.4714 11.3247 17.1086 10.3572 16.7257 9.38974C16.5241 8.84554 16.3024 8.3215 16.0807 7.7773C17.2094 7.51528 18.3986 7.55559 19.487 8.03932ZM6.10375 18.2582C7.29293 17.2101 8.76428 16.4845 10.2759 15.9403C10.3364 16.2426 10.3767 16.5651 10.4573 16.8674C10.7395 18.2178 11.1023 19.5279 11.5457 20.8381C9.0263 21.3016 6.46655 21.6241 3.90681 21.9063C4.2696 20.4954 5.01536 19.2256 6.10375 18.2582ZM8.26039 31.0166C5.76111 29.9886 4.02774 27.7312 3.66494 25.0707C3.60447 24.5668 3.58432 24.0629 3.60447 23.559C6.42624 23.2366 9.26816 22.8939 12.0496 22.39C12.4124 23.3776 12.7954 24.3451 13.1783 25.3126C13.8435 26.9855 14.5489 28.6181 15.2543 30.2708C13.1985 31.5809 10.5581 31.9639 8.26039 31.0166ZM18.7211 24.0428C18.6405 25.9979 17.8947 27.832 16.5443 29.2026C15.5164 26.8444 14.5287 24.466 13.6621 22.0474C13.4807 21.5435 13.2993 21.0195 13.138 20.5156C12.9768 20.052 12.8357 19.5884 12.6946 19.1047C12.352 17.9558 12.0093 16.7062 11.8279 15.4364C11.7473 14.872 11.707 14.3278 11.707 13.7635C11.707 11.8286 12.2713 10.0347 14.0249 8.74476C14.2063 8.60367 14.4078 8.48274 14.6295 8.36181C15.1939 9.77269 15.7381 11.2037 16.242 12.6348C16.4234 13.1387 16.6048 13.6627 16.766 14.1666C17.0079 14.872 17.2296 15.5976 17.4311 16.3031C17.6932 17.2101 17.9552 18.1372 18.1769 19.0845C18.2978 19.6086 18.3986 20.1528 18.4994 20.697C18.6606 21.8055 18.7614 22.9141 18.7211 24.0428ZM20.9987 17.4721C20.5955 17.8349 20.1521 18.1372 19.6684 18.3992C19.3056 16.8674 18.8622 15.3558 18.3583 13.8441C19.8498 13.5619 21.3615 13.3201 22.8731 13.1185C22.8933 14.7511 22.2281 16.3837 20.9987 17.4721Z" fill="#4862CC"/>
<path d="M33.9386 29.3236C31.8828 29.3236 30.2703 28.9406 28.8796 27.8119C28.5571 27.5499 28.5571 27.0863 28.8393 26.8041L29.8067 25.8367C30.0486 25.5948 30.4316 25.5746 30.7137 25.7762C31.6207 26.4413 32.7494 26.6832 33.9588 26.6832C35.7325 26.6832 36.6798 26.0181 36.6798 24.7886C36.6798 24.2444 36.5387 23.801 36.196 23.4986C35.8937 23.2165 35.5511 23.0754 34.8456 22.9544L32.9913 22.6924C31.6812 22.4909 30.7137 22.0877 30.0083 21.4226C29.2827 20.697 28.8997 19.6892 28.8997 18.3993C28.8997 15.6581 30.9354 13.7434 34.2409 13.7434C36.0549 13.7434 37.4255 14.1263 38.6147 15.0333C38.9372 15.2752 38.9573 15.7791 38.6752 16.0613L37.748 16.9884C37.5061 17.2303 37.1433 17.2504 36.8612 17.0489C35.9945 16.4442 35.027 16.3636 34.1603 16.3636C32.568 16.3636 31.782 17.2504 31.782 18.2985C31.782 18.6815 31.9029 19.1047 32.2254 19.4071C32.5277 19.6892 33.0316 19.9311 33.6564 20.0117L35.4704 20.2738C36.8813 20.4753 37.748 20.8583 38.393 21.4629C39.2193 22.249 39.5821 23.3575 39.5821 24.7281C39.6225 27.6305 37.1433 29.3236 33.9386 29.3236Z" fill="#4862CC"/>
<path d="M55.0008 29.1825H53.5496C53.2473 29.1825 52.9853 28.9809 52.8845 28.6987L50.869 22.0474C50.6674 21.4025 49.7403 21.4025 49.5387 22.0474L47.5232 28.6987C47.4425 28.9809 47.1604 29.1825 46.858 29.1825H45.4068C45.0843 29.1825 44.8223 28.9809 44.7417 28.6786L41.0129 14.7108C40.892 14.2674 41.2346 13.8441 41.6781 13.8441H43.3711C43.6936 13.8441 43.9758 14.0659 44.0363 14.3682L45.6689 21.0195C45.8301 21.7048 46.7976 21.7249 46.9991 21.0397L48.934 14.348C49.0147 14.0457 49.2968 13.8441 49.5992 13.8441H50.8085C51.1108 13.8441 51.393 14.0457 51.4736 14.348L53.4086 21.0598C53.6101 21.7451 54.5776 21.7249 54.7388 21.0397L56.3916 14.3883C56.4722 14.086 56.7544 13.8643 57.0567 13.8643H58.7498C59.2133 13.8643 59.5358 14.2876 59.4149 14.731L55.666 28.6987C55.5854 28.9809 55.3233 29.1825 55.0008 29.1825Z" fill="#4862CC"/>
<path d="M69.7949 28.7188L69.2104 26.9452C69.1096 26.663 68.8476 26.4816 68.5453 26.4816H64.0909C63.7886 26.4816 63.5265 26.663 63.4459 26.9452L62.8413 28.7188C62.7405 29.001 62.4785 29.1824 62.1963 29.1824H60.5234C60.0396 29.1824 59.7172 28.6987 59.8784 28.2553L64.9576 14.2875C65.0584 14.0053 65.3204 13.8239 65.6026 13.8239H66.9933C67.2755 13.8239 67.5375 14.0053 67.6383 14.2875L72.7376 28.2553C72.8988 28.6987 72.5764 29.1824 72.0926 29.1824H70.46C70.1577 29.1824 69.8957 29.001 69.7949 28.7188ZM65.7235 20.2737L64.756 23.035C64.5948 23.4784 64.9374 23.9622 65.401 23.9622H67.2755C67.739 23.9622 68.0817 23.4986 67.9406 23.0552L67.0134 20.2939C66.8119 19.669 65.925 19.6489 65.7235 20.2737Z" fill="#4862CC"/>
<path d="M80.941 23.418H78.6634C78.2805 23.418 77.9781 23.7203 77.9781 24.1033V28.4972C77.9781 28.8801 77.6758 29.1825 77.2928 29.1825H75.6804C75.2975 29.1825 74.9951 28.8801 74.9951 28.4972V14.5294C74.9951 14.1465 75.2975 13.8441 75.6804 13.8441H80.941C84.1054 13.8441 86 16.0209 86 18.621C86 21.2412 84.1054 23.418 80.941 23.418ZM80.7797 16.5047H78.6634C78.2805 16.5047 77.9781 16.807 77.9781 17.19V20.0117C77.9781 20.3947 78.2805 20.697 78.6634 20.697H80.7797C82.1302 20.697 82.9968 19.8505 82.9968 18.6008C82.9968 17.3714 82.1302 16.5047 80.7797 16.5047Z" fill="#4862CC"/>
</svg>
