<svg width="40" height="40" viewBox="0 0 40 40" fill="none" xmlns="http://www.w3.org/2000/svg">
<path d="M27.3482 21.9154C27.239 21.178 27.0751 20.4679 26.9112 19.7305C26.6108 18.4468 26.283 17.1905 25.9007 15.9614C25.6002 14.9782 25.2998 14.0223 24.9994 13.0664C24.7809 12.3836 24.5351 11.6735 24.2893 10.9907C23.6065 9.05153 22.8691 7.11238 22.1043 5.20055C21.8312 5.36443 21.5581 5.5283 21.285 5.71948C18.9088 7.44013 18.1441 9.89819 18.1441 12.5201C18.1441 13.2576 18.1987 14.0223 18.308 14.787C18.5538 16.5077 19.0181 18.2283 19.4824 19.7578C19.6736 20.3859 19.8648 21.0414 20.0832 21.6696C20.3017 22.3524 20.5475 23.0625 20.7934 23.7453C21.9678 27.0227 23.3334 30.2455 24.699 33.441C26.5288 31.5838 27.5394 29.0984 27.6486 26.4492C27.7306 24.9197 27.594 23.4176 27.3482 21.9154Z" fill="#F7B52C"/>
<path d="M35.4873 11.3729C35.46 10.6355 35.3507 9.89803 35.1595 9.18792C34.6133 7.11222 33.3843 5.25501 31.6363 3.94404C29.2329 2.14146 26.1193 1.5406 23.2516 2.35996C23.115 2.38727 23.0058 2.44189 22.8692 2.4692C22.323 2.66039 21.7767 2.87888 21.2578 3.152C18.9909 4.35372 17.243 6.3748 16.3963 8.80556C15.9593 10.2258 15.85 11.7279 15.9593 13.2301C13.8563 13.9675 11.8352 14.9234 10.0872 16.2344C7.57455 18.0916 5.88122 20.7955 5.28036 23.7998C5.1438 24.5099 5.03455 25.22 5.00724 25.9574C5.00724 25.9847 5.00724 26.012 5.00724 26.0393C4.87068 30.0269 6.67326 33.9325 9.86875 36.3359C13.1462 38.794 17.4341 39.5041 21.3124 38.1385C22.2137 37.8108 23.0604 37.4011 23.8797 36.9095C24.5079 36.5271 25.1088 36.0628 25.6823 35.5712C27.403 34.0417 28.7139 32.1026 29.3967 29.863C30.2434 27.0499 29.9976 23.9363 29.4514 21.0413C30.2707 20.6316 31.0354 20.1673 31.7456 19.6211C34.0944 17.8458 35.4327 15.0054 35.5419 12.083C35.5146 11.8099 35.5146 11.5914 35.4873 11.3729ZM28.7139 4.7634C30.7896 5.66469 32.3191 7.38534 32.9746 9.48835C30.7896 9.78878 28.632 10.1438 26.4744 10.5535C25.9827 9.21523 25.4911 7.90426 24.9722 6.5933C24.6991 5.85588 24.3987 5.14577 24.0982 4.40835C25.6277 4.05329 27.2391 4.10792 28.7139 4.7634ZM10.5789 18.6105C12.1903 17.1903 14.184 16.2071 16.2324 15.4697C16.3143 15.8793 16.369 16.3163 16.4782 16.726C16.8606 18.5559 17.3522 20.3312 17.9531 22.1064C14.5391 22.7346 11.0705 23.1716 7.60186 23.554C8.09348 21.6421 9.10402 19.9215 10.5789 18.6105ZM13.5012 35.8989C10.1146 34.506 7.76574 31.4471 7.27412 27.8419C7.19219 27.1591 7.16487 26.4763 7.19219 25.7935C11.0158 25.3565 14.8668 24.8922 18.6359 24.2094C19.1275 25.5477 19.6464 26.8587 20.1653 28.1697C21.0666 30.4366 22.0225 32.6488 22.9784 34.8884C20.1926 36.6637 16.6148 37.1826 13.5012 35.8989ZM27.6761 26.449C27.5668 29.0983 26.5563 31.5837 24.7264 33.4409C23.3335 30.2454 21.9952 27.0226 20.8208 23.7451C20.575 23.0623 20.3292 22.3522 20.1107 21.6694C19.8922 21.0413 19.701 20.4131 19.5098 19.7576C19.0455 18.2008 18.5812 16.5075 18.3354 14.7869C18.2262 14.0221 18.1716 13.2847 18.1716 12.52C18.1716 9.89803 18.9363 7.46727 21.3124 5.71932C21.5582 5.52813 21.8313 5.36426 22.1318 5.20039C22.8965 7.11222 23.6339 9.05136 24.3167 10.9905C24.5625 11.6733 24.8083 12.3834 25.0268 13.0662C25.3546 14.0221 25.655 15.0053 25.9281 15.9613C26.2832 17.1903 26.6382 18.4466 26.9387 19.7303C27.1025 20.4404 27.2391 21.1778 27.3757 21.9153C27.5941 23.4174 27.7307 24.9196 27.6761 26.449ZM30.7623 17.5454C30.2161 18.037 29.6152 18.4466 28.9597 18.8017C28.4681 16.726 27.8673 14.6776 27.1845 12.6292C29.2055 12.2469 31.2539 11.9191 33.3023 11.646C33.3296 13.8582 32.4284 16.0705 30.7623 17.5454Z" fill="#4862CC"/>
</svg>
