<svg id="b2abcbfb-95fb-4707-aae2-6ef2553889e0" data-name="圖層 1" xmlns="http://www.w3.org/2000/svg" viewBox="0 0 502.82 266.52"><defs><style>.fa10ed9a-68c9-413f-93e5-07c2db7b78e3{fill:#3e3a39;}.f52a6371-9ac0-463b-be62-f73db38bad59{fill:none;}.e0da81f7-dfd7-4ee2-9b63-af372f931420{fill:#c8c9ca;}</style></defs><title>1225SWAP_logo_測試用 (1)</title><path class="fa10ed9a-68c9-413f-93e5-07c2db7b78e3" d="M173.66,181.76c-12.61,0-22.55-2.36-31.09-9.35a4.24,4.24,0,0,1-.26-6.26l6-6a4.3,4.3,0,0,1,5.61-.35c5.59,4.09,12.55,5.53,20,5.53,10.88,0,16.72-4.11,16.72-11.67,0-3.32-.93-6.11-2.92-8s-4-2.66-8.36-3.32L168,140.77c-8.09-1.19-14.06-3.72-18.3-7.83-4.52-4.51-6.77-10.61-6.77-18.57,0-16.85,12.47-28.66,32.9-28.66,11.11,0,19.6,2.33,26.89,7.89A4.24,4.24,0,0,1,203,100l-5.71,5.65a4.28,4.28,0,0,1-5.45.41c-5.34-3.68-11.31-4.25-16.61-4.25-9.82,0-14.59,5.44-14.59,11.94a9.11,9.11,0,0,0,2.78,6.76,16.22,16.22,0,0,0,8.76,3.72l11.14,1.59c8.62,1.19,14.06,3.58,18,7.29,5,4.78,7.3,11.68,7.3,20C208.68,171.41,193.42,181.76,173.66,181.76Z"/><path class="fa10ed9a-68c9-413f-93e5-07c2db7b78e3" d="M303.32,181h-9a4.24,4.24,0,0,1-4.07-3l-12.4-40.88a4.25,4.25,0,0,0-8.13,0L257.35,178a4.25,4.25,0,0,1-4.07,3h-9a4.26,4.26,0,0,1-4.11-3.15L217.27,91.86a4.25,4.25,0,0,1,4.11-5.35h10.36a4.26,4.26,0,0,1,4.13,3.24l10,40.87a4.26,4.26,0,0,0,8.22.17L266,89.58a4.24,4.24,0,0,1,4.08-3.07h7.41a4.24,4.24,0,0,1,4.08,3.07l11.95,41.27a4.25,4.25,0,0,0,8.21-.16l10.12-40.95A4.26,4.26,0,0,1,316,86.51h10.37a4.25,4.25,0,0,1,4.1,5.35l-23.05,86A4.26,4.26,0,0,1,303.32,181Z"/><path class="fa10ed9a-68c9-413f-93e5-07c2db7b78e3" d="M394.36,178.06l-3.63-10.9a4.25,4.25,0,0,0-4-2.91H359.24a4.24,4.24,0,0,0-4,2.88l-3.74,11a4.26,4.26,0,0,1-4,2.87H337.33a4.25,4.25,0,0,1-4-5.7L364.6,89.31a4.26,4.26,0,0,1,4-2.8h8.5a4.26,4.26,0,0,1,4,2.79l31.38,86a4.25,4.25,0,0,1-4,5.71H398.4A4.26,4.26,0,0,1,394.36,178.06Zm-25.13-51.94-5.89,17a4.25,4.25,0,0,0,4,5.65h11.59a4.25,4.25,0,0,0,4-5.61l-5.7-17A4.25,4.25,0,0,0,369.23,126.12Z"/><path class="fa10ed9a-68c9-413f-93e5-07c2db7b78e3" d="M462.86,145.41H448.93a4.26,4.26,0,0,0-4.25,4.25v27.05a4.25,4.25,0,0,1-4.25,4.25h-9.94a4.25,4.25,0,0,1-4.25-4.25V90.76a4.25,4.25,0,0,1,4.25-4.25h32.37c19.5,0,31.17,13.4,31.17,29.45S482.36,145.41,462.86,145.41ZM461.93,103h-13a4.25,4.25,0,0,0-4.25,4.25v17.37a4.25,4.25,0,0,0,4.25,4.25h13c8.36,0,13.66-5.17,13.66-12.87S470.29,103,461.93,103Z"/><path class="f52a6371-9ac0-463b-be62-f73db38bad59" d="M58.82,147.05c-13.85,2.58-27.9,4.27-41.93,5.84a39.7,39.7,0,0,0,.28,7.55A37.38,37.38,0,0,0,40,190c11.37,4.74,24.54,2.85,34.71-3.8-3.51-8.16-7-16.35-10.29-24.6C62.5,156.77,60.6,151.93,58.82,147.05Z"/><path class="f52a6371-9ac0-463b-be62-f73db38bad59" d="M50.81,119.77c-.3-1.5-.59-3-.85-4.57-7.52,2.75-14.82,6.32-20.71,11.54a37.23,37.23,0,0,0-11,18c12.69-1.42,25.39-3,37.92-5.27A172.63,172.63,0,0,1,50.81,119.77Z"/><path class="f52a6371-9ac0-463b-be62-f73db38bad59" d="M96.58,127.38a37.39,37.39,0,0,0,6.59-4.57,28.35,28.35,0,0,0,9.36-21.57c-7.5,1-15,2.21-22.43,3.59C92.6,112.25,94.83,119.76,96.58,127.38Z"/><path class="f52a6371-9ac0-463b-be62-f73db38bad59" d="M95.69,76A26.29,26.29,0,0,0,78.8,74.75q1.61,4,3.17,8c1.88,4.8,3.72,9.63,5.48,14.49,7.9-1.5,15.86-2.77,23.85-3.9A27.82,27.82,0,0,0,95.69,76Z"/><path class="e0da81f7-dfd7-4ee2-9b63-af372f931420" d="M90.74,138.79c-.44-2.68-1-5.34-1.57-8-1.07-4.66-2.35-9.27-3.69-13.79-1-3.56-2.18-7.09-3.35-10.61-.84-2.55-1.7-5.09-2.6-7.62-2.51-7.11-5.22-14.16-8-21.17a28.68,28.68,0,0,0-3,1.89C59.81,85.83,57,94.83,57,104.38a59.24,59.24,0,0,0,.64,8.25A125.79,125.79,0,0,0,62,130.86c.7,2.34,1.44,4.67,2.2,7,.84,2.55,1.7,5.09,2.61,7.62,4.28,12,9.25,23.77,14.32,35.48a38.31,38.31,0,0,0,10.8-25.57A83.85,83.85,0,0,0,90.74,138.79Z"/><path class="fa10ed9a-68c9-413f-93e5-07c2db7b78e3" d="M120.54,100.18a36,36,0,0,0-1.2-8,35.25,35.25,0,0,0-43.62-25c-.47.13-.93.27-1.39.42a37.41,37.41,0,0,0-5.89,2.52A37,37,0,0,0,50.68,90.91,41.78,41.78,0,0,0,49,107a82.86,82.86,0,0,0-21.54,11A45.89,45.89,0,0,0,9.78,145.64a46.64,46.64,0,0,0-1,7.86c0,.1,0,.2,0,.3a45.5,45.5,0,0,0,17.83,37.7,45,45,0,0,0,41.88,6.61,49.39,49.39,0,0,0,9.38-4.51,47.66,47.66,0,0,0,6.57-4.89,45.48,45.48,0,0,0,13.59-20.92c3.11-10.34,2.17-21.68.21-32.3a53.24,53.24,0,0,0,8.42-5.22,36.06,36.06,0,0,0,13.86-27.63C120.58,101.82,120.57,101,120.54,100.18ZM95.69,76A27.82,27.82,0,0,1,111.3,93.31c-8,1.13-16,2.4-23.85,3.9-1.76-4.86-3.6-9.69-5.48-14.49q-1.56-4-3.17-8A26.29,26.29,0,0,1,95.69,76ZM29.25,126.74C35.14,121.52,42.44,118,50,115.2c.26,1.54.55,3.07.85,4.57a172.63,172.63,0,0,0,5.36,19.66c-12.53,2.31-25.23,3.85-37.92,5.27A37.23,37.23,0,0,1,29.25,126.74ZM40,190a37.38,37.38,0,0,1-22.83-29.53,39.7,39.7,0,0,1-.28-7.55c14-1.57,28.08-3.26,41.93-5.84,1.78,4.88,3.68,9.72,5.6,14.52,3.31,8.25,6.78,16.44,10.29,24.6C64.54,192.82,51.37,194.71,40,190Zm51.89-34.6a38.31,38.31,0,0,1-10.8,25.57c-5.07-11.71-10-23.48-14.32-35.48-.91-2.53-1.77-5.07-2.61-7.62-.76-2.31-1.5-4.64-2.2-7a125.79,125.79,0,0,1-4.3-18.23,59.24,59.24,0,0,1-.64-8.25c0-9.55,2.79-18.55,11.5-24.87a28.68,28.68,0,0,1,3-1.89c2.82,7,5.53,14.06,8,21.17.9,2.53,1.76,5.07,2.6,7.62,1.17,3.52,2.3,7,3.35,10.61,1.34,4.52,2.62,9.13,3.69,13.79.6,2.64,1.13,5.3,1.57,8A83.85,83.85,0,0,1,91.89,155.37Zm11.28-32.56a37.39,37.39,0,0,1-6.59,4.57c-1.75-7.62-4-15.13-6.48-22.55,7.44-1.38,14.93-2.55,22.43-3.59A28.35,28.35,0,0,1,103.17,122.81Z"/></svg>
