<svg id="圖層_1" data-name="圖層 1" xmlns="http://www.w3.org/2000/svg" viewBox="0 0 751.93 295.68"><defs><style>.cls-1{fill:#101735;}.cls-2{fill:#3c4ea0;}</style></defs><title>SWAP_LOGO</title><path class="cls-1" d="M134.18,159.05q2.43-11.46,4.88-22.9c2-9.36,3.92-18.76,6.23-28.05a5.68,5.68,0,0,1,4.05-3.34,86.19,86.19,0,0,1,15.24,0c1.75.17,4.46,2.11,4.77,3.64,2,9.5,3.23,19.12,5,28.66,1.33,7.37,3,14.68,4.49,22l1.41-.16c2.27-16.39,4.64-32.77,6.75-49.18.81-6.28,1.27-7,7.44-6.21,3.82.5,7.6,1.31,11.42,1.89,3.21.49,4,2.54,3.46,5.32-2,9.91-4.06,19.8-6.08,29.71-.89,4.4-1.72,8.82-2.57,13.24-2.13,11.06-4.12,22.16-6.56,33.16-.35,1.56-2.85,3.63-4.47,3.74a123.45,123.45,0,0,1-18.94,0c-1.91-.17-4.78-2.44-5.23-4.23-2.55-10.36-4.44-20.88-6.69-31.31-.69-3.18-1.82-6.26-3.15-10.73-2.06,9.36-4,17.27-5.49,25.23-1.1,5.61-1.33,11.42-2.79,16.92-.47,1.79-3.5,3.94-5.52,4.11-6.28.54-12.63.2-19,.2-3.78,0-5.38-1.83-6-5.65-2.52-15-5.43-30-8.13-45-1.8-10-3.38-20-5.28-30-.84-4.41,1.08-5.74,5-5.62,20.94.65,16.49-4.24,19.59,17.24,1.77,12.31,3.26,24.65,4.87,37Z"/><path class="cls-1" d="M244.34,104c5,.64,11.18-.29,14.55,2.38,3.18,2.52,3.54,8.77,4.85,13.46,3.26,11.75,6.29,23.56,9.53,35.31,2.46,8.95,4.86,17.93,7.72,26.75,2.19,6.72,1,8.94-6,8.95-3.86,0-7.81.48-11.55-.2a8.83,8.83,0,0,1-5.61-4.18c-1.48-3-1.42-6.76-2.68-9.93a7.19,7.19,0,0,0-4.21-4c-2.83-.67-5.92-.25-8.91-.25-10.8,0-11.76.63-12.87,11.65-.54,5.34-2.88,7.3-8,6.94-3.84-.27-7.72,0-11.57-.09-3.52-.11-5-1.62-3.91-5.45,5.58-19.22,11-38.49,16.49-57.75,1.68-5.94,3.19-11.93,4.89-17.87.87-3,2.52-5.25,6.18-5.13s7.37,0,11.05,0Zm6.06,48.82c-2.12-8.6-4.18-16.94-6.24-25.27A148.29,148.29,0,0,0,237,151.34c-.2.9,1,3,1.76,3.1C242.84,155.16,247.11,156.09,250.4,152.78Z"/><path class="cls-1" d="M42.26,164.2c8.09,3,15.05,6,22.25,8a16.78,16.78,0,0,0,9.65-.6c2-.71,4.48-3.5,4.53-5.42s-2.16-4.95-4.13-5.85c-6.93-3.16-14.39-5.16-21.25-8.44-12.14-5.81-14.39-13.24-13.09-28.8.66-7.8,8.07-15.43,17.3-17.94,12.67-3.45,25.06-2,37.13,2.58,3.4,1.29,5.41,3.18,3.4,7.94s-2,10.43-3.06,16.5c-7.67-5.81-15.07-9.83-24.06-9.67-6.66.13-10.23,2.94-8.35,7.49,1,2.48,4,4.7,6.6,5.87,4.35,1.95,9.15,2.85,13.7,4.38,12.46,4.17,17.88,11.64,18.23,23.5.33,11.3-5.63,22.31-17.41,25.38C68.83,193,54.07,193,40.32,184.94c-1.25-.72-2.12-3.32-2-4.94a86.75,86.75,0,0,1,2.19-12.24A13.93,13.93,0,0,1,42.26,164.2Z"/><path class="cls-1" d="M290.72,147.34c0-12.3.1-24.6-.05-36.9-.05-3.9,1.14-6,5.33-5.88,11.59.27,23.21,0,34.75.78,8.56.59,16.49,3.78,20.28,12.34,8,18.08.11,39.4-23.57,40.7-13.29.73-13.3.57-13.3,13.85,0,4.4,0,8.79,0,13.18,0,3.68-1.74,5.47-5.46,5.41s-7.38,0-11.07,0c-6.1,0-6.86-.77-6.89-7.1C290.69,171.58,290.72,159.46,290.72,147.34Zm23.44-15.17c.93,3.05-2.69,8.92,5.37,8.56,8.55-.38,12-2.4,12.19-8.54s-3.57-9.07-11.8-9.08C314.16,123.11,314.16,123.11,314.16,132.17Z"/><path class="cls-2" d="M416.93,157.19a14.13,14.13,0,0,1,7.85,5.66c1.93,2.89,2.37,6.08,2.39,9.39,0,6.43-2.37,11.7-8.3,14.63a23.9,23.9,0,0,1-9.2,2.69c-9.39.4-18.81.22-28.22.32-1.83,0-1.63-1.17-1.63-2.31V145c0-5.51,0-11,0-16.52,0-1.31.23-2.22,1.86-2.19,9.21.15,18.43.11,27.64.46a15.23,15.23,0,0,1,11.77,5.77c2.81,3.57,3.56,7.77,3.05,12.18a15.26,15.26,0,0,1-5.82,10.7A10,10,0,0,0,416.93,157.19Zm-21,13.24h0c0,1.77,0,3.54,0,5.31,0,.95.25,1.63,1.38,1.59,2.66-.08,5.34,0,8-.27a6.32,6.32,0,0,0,5.48-5.71c.3-3.71-.83-6.07-4.2-6.85a52.51,52.51,0,0,0-9.58-.83c-.33,0-1,.93-1,1.45C395.86,166.88,395.94,168.66,395.94,170.43Zm0-25.19h0c0,1.7,0,3.41,0,5.11,0,1.08.39,1.66,1.57,1.6,1.52-.08,3.05,0,4.56-.15,5.09-.53,7.55-4.64,5.74-9.41a4.44,4.44,0,0,0-3.51-3.08,52.15,52.15,0,0,0-5.82-.79c-2.39-.14-2.51,0-2.54,2.36C395.91,142.33,395.93,143.79,395.93,145.24Z"/><path class="cls-2" d="M547.25,171.26q-.6-11-1.21-22a6.07,6.07,0,0,0-.13-.94c-.57-2.93-.56-2.86,2.55-3.25,3.53-.45,7-1,10.55-1.59,2-.32,2.33-.13,2.57,1.87s.45,2,2,1c3.66-2.34,7.56-3.89,12-3.38,5.17.6,9.55,3.25,10.63,9.18a46.4,46.4,0,0,1,.84,7.7c.1,9.24,0,18.49.07,27.74,0,1.77-.59,2.32-2.29,2.29-3.62-.08-7.25-.08-10.87,0-1.69,0-2.2-.65-2.18-2.27q.07-12.63,0-25.27a15.85,15.85,0,0,0-.43-4.13,3.9,3.9,0,0,0-1.62-2.14c-2.77-1.66-7.79,1.24-7.79,4.43,0,9,0,18,0,27,0,1.81-.51,2.47-2.36,2.41-3.56-.12-7.13-.09-10.69,0-1.55,0-2.14-.49-2.12-2.08.07-5.51,0-11,0-16.53Z"/><path class="cls-2" d="M474.63,189.54a20.78,20.78,0,0,1-2.45.31c-3.25,0-6.49-.08-9.74.05-2,.07-3.38-.37-3.46-2.67,0-.28-.25-.55-.43-.93-2.08,1-4,2.16-6.1,3-5.38,2.3-11.67,1.85-15.6-1.73-2.94-2.67-3.74-6.32-3.89-10-.24-6.2,0-12.42-.17-18.63-.08-4.28.38-8.62-1.12-12.8-.41-1.13.22-1.78,1.44-1.88,4.37-.37,8.74-.8,13.11-1.08.5,0,1.26.68,1.52,1.22a5.18,5.18,0,0,1,.13,2.06c0,8.75,0,17.49,0,26.23,0,1.95.05,4,2.23,5,3,1.43,7.73-1.43,7.73-4.69,0-5.77.11-11.54-.05-17.3a70.34,70.34,0,0,0-1-9c-.25-1.58,0-2.41,1.76-2.54,4.18-.31,8.36-.68,12.54-1.08,1.19-.12,1.65.41,1.72,1.46,0,.63,0,1.27,0,1.9,0,8.81,0,17.62,0,26.42A60.83,60.83,0,0,0,474.63,189.54Z"/><path class="cls-2" d="M619.79,171c-3.31,0-6.62,0-9.92,0-2,0-2.57,1-1.53,2.78a9.11,9.11,0,0,0,7.36,4.72,21.41,21.41,0,0,0,12.36-2.17c1.73-.89,2.26-.56,2.84,1.25s1.15,3.48,1.83,5.17a2.59,2.59,0,0,1-1.24,3.65A28.59,28.59,0,0,1,605,188.72c-6.21-2.44-9.82-7.31-10.94-13.77a47.51,47.51,0,0,1-.79-11.46c.49-6.28,2.77-12,8-16,5.73-4.38,12.23-5.46,19.27-3.91a15.62,15.62,0,0,1,10.8,7.93,17.71,17.71,0,0,1,2,9.73,68,68,0,0,1-1.24,8.2c-.21,1.2-1.07,1.55-2.25,1.53-3.37,0-6.75,0-10.12,0Zm-5.68-9.19a47,47,0,0,0,4.75-.05c.58-.06,1.55-.74,1.56-1.15a7.75,7.75,0,0,0-.62-3.62c-1.22-2.36-3.93-3.21-6.92-2.5-2.29.54-4.87,3.48-5,5.65-.08,1.1.35,1.68,1.49,1.67Z"/><path class="cls-2" d="M513.39,159.1c-2.2-1-4.28-2.1-6.4-3a18,18,0,0,0-8.86-1.79,3,3,0,0,0-3.08,2.57,2.76,2.76,0,0,0,2.05,3.07c2.56.91,5.19,1.62,7.8,2.41,3.67,1.11,7.24,2.43,9.43,5.88,3.8,6,2.78,17.07-5.85,20.66a30.58,30.58,0,0,1-19.05,1.31c-2.89-.66-5.73-1.58-8.54-2.52A2,2,0,0,1,479.8,186c.38-3.45.89-6.89,1.44-10.33.23-1.44.67-2,2.38-1,4.52,2.7,9.19,5.23,14.73,4.94a5.06,5.06,0,0,0,2.81-.8c1.83-1.54.87-4.13-1.83-5s-5.25-1.49-7.86-2.27c-3.44-1-6.68-2.42-8.82-5.53-3.87-5.62-3.26-17,5.62-20.89,6.06-2.68,12.33-2.64,18.68-1.54a54.22,54.22,0,0,1,7,1.65,2.58,2.58,0,0,1,1.45,2c-.4,3.77-1,7.51-1.61,11.26C513.79,158.64,513.61,158.78,513.39,159.1Z"/><path class="cls-2" d="M673,159.3c-2.58-1.24-4.66-2.29-6.78-3.24a18.14,18.14,0,0,0-8.86-1.8,3,3,0,0,0-3.1,2.54,2.85,2.85,0,0,0,2.19,3.17c2.57.88,5.22,1.56,7.81,2.37,3.59,1.13,7.1,2.43,9.27,5.82,3.81,6,2.78,17.08-5.82,20.68a30.58,30.58,0,0,1-19.05,1.33,85.26,85.26,0,0,1-8.54-2.53,2.17,2.17,0,0,1-1.1-1.77c.36-3.39.87-6.77,1.42-10.14.22-1.4.61-2.11,2.37-1.07,4.58,2.72,9.29,5.29,14.91,5a4.71,4.71,0,0,0,2.63-.78c1.85-1.54.92-4.13-1.79-5s-5.25-1.49-7.85-2.28c-3.45-1-6.69-2.4-8.84-5.51-3.92-5.66-3.24-17.11,5.76-21,6.09-2.61,12.34-2.58,18.69-1.44a64.55,64.55,0,0,1,6.84,1.59c.62.18,1.53,1.09,1.48,1.59C674.23,150.87,673.61,154.91,673,159.3Z"/><path class="cls-2" d="M682.42,174.15c3.69,1.64,7.06,3.42,10.63,4.6a21.6,21.6,0,0,0,7.11.7,3.34,3.34,0,0,0,2.24-1.91,2.63,2.63,0,0,0-.79-2.45,35,35,0,0,0-5.5-2.38c-3.13-1.17-6.45-1.94-9.4-3.45-3.53-1.81-5.34-5-5.69-9.06-.46-5.21.55-9.82,4.83-13.28a19,19,0,0,1,10-3.8,44.53,44.53,0,0,1,18.78,2.15,2.27,2.27,0,0,1,1.26,1.78c-.46,3.88-1.12,7.74-1.72,11.61,0,.1-.17.18-.37.4-2.09-1-4.22-2.06-6.38-3a18,18,0,0,0-8.87-1.76,3,3,0,0,0-3,2.4,2.77,2.77,0,0,0,2,3.24c2.56.92,5.2,1.61,7.8,2.4,3.67,1.13,7.24,2.44,9.43,5.9,3.78,6,2.75,17.06-5.89,20.65A30.67,30.67,0,0,1,690,190.2a88.81,88.81,0,0,1-8.72-2.57,2,2,0,0,1-1.07-1.62c.38-3.46.9-6.9,1.46-10.33A5.62,5.62,0,0,1,682.42,174.15Z"/><path class="cls-2" d="M538,166.73c0,7,0,14.05,0,21.08,0,1.55-.47,2.12-2.06,2.08-3.62-.09-7.25-.1-10.87,0-1.77.06-2.31-.56-2.3-2.29.07-9.75.13-19.51,0-29.25a89.38,89.38,0,0,0-1.13-10.93c-.2-1.41.11-2,1.51-2.18,4.41-.6,8.81-1.23,13.19-2,1.5-.25,1.62.59,1.63,1.6,0,2.79,0,5.58,0,8.36Z"/><path class="cls-2" d="M529.93,123.11c6.51-.06,8.59,3.15,8.79,7.85s-3.57,8.41-8.66,8.23c-5.64-.19-8.45-2.51-8.46-8.36C521.6,126,524.76,123.1,529.93,123.11Z"/></svg>