<svg id="e1dd5107-4929-4b3b-b074-232de8493214" data-name="圖層 1" xmlns="http://www.w3.org/2000/svg" viewBox="0 0 1366 768"><defs><style>.b37b3a26-5cec-4fa3-b6b7-d66581a25332{fill:#121037;}</style></defs><title>SWAP-CI</title><path class="b37b3a26-5cec-4fa3-b6b7-d66581a25332" d="M98,433.51s43.24,40.78,105.65,40.78c23.1,0,34.89-8.35,34.89-25.55,0-50.12-149.88-17.2-149.88-136.61,0-61.92,42.75-96.81,118.92-96.81,69.29,0,106.15,25.06,106.15,25.06l-14.25,84s-41.28-40.3-92.88-40.3c-22.11,0-33.42,8.84-33.42,25.06,0,51.11,147.92,14.25,147.92,133.17,0,61.92-40.3,102.71-123.35,102.71-73.71,0-114.49-29-114.49-29Z"/><path class="b37b3a26-5cec-4fa3-b6b7-d66581a25332" d="M569.26,539.16,532.41,352.92,496.54,539.16H389.41l-59-319.41h88.45l28.51,226,44.22-226h88l41.77,226.54,32.93-233.91,83.54,14.24-62.9,312.54Z"/><path class="b37b3a26-5cec-4fa3-b6b7-d66581a25332" d="M922.59,539.16l-15.24-66.83h-86l-16.22,66.83h-88l92.38-319.41h114l90.91,319.41Zm-57.5-248.65L836.1,408h56.51Z"/><path class="b37b3a26-5cec-4fa3-b6b7-d66581a25332" d="M1043,539.16V219.75h116c88,0,121.38,34.89,121.38,97.79,0,62.41-34.4,104.17-123.83,104.17h-27V539.16Zm113.52-182.8c28,0,39.8-10.81,39.8-34.4s-12.78-35.38-39.8-35.38h-27v69.78Z"/></svg>