<svg id="bb3961e0-eba6-4d8f-9ef9-d47f9d9fb4d3" data-name="圖層 1" xmlns="http://www.w3.org/2000/svg" viewBox="0 0 1366 768"><defs><style>.aaa66351-3531-4a65-a29f-4390d9ac0f13{fill:#121037;}.f18af5ca-21ba-4896-8540-21dc8806e9d8{fill:#3f51b5;}</style></defs><title>SWAP-CI</title><path class="aaa66351-3531-4a65-a29f-4390d9ac0f13" d="M103.12,409.14s24.13,22.76,58.95,22.76c12.89,0,19.47-4.66,19.47-14.26,0-28-83.63-9.59-83.63-76.23,0-34.55,23.85-54,66.36-54,38.66,0,59.23,14,59.23,14l-7.95,46.89s-23-22.49-51.83-22.49c-12.34,0-18.65,4.94-18.65,14,0,28.52,82.54,8,82.54,74.31,0,34.55-22.49,57.31-68.83,57.31-41.13,0-63.89-16.18-63.89-16.18Z"/><path class="aaa66351-3531-4a65-a29f-4390d9ac0f13" d="M366.09,468.1,345.52,364.17l-20,103.93H265.73L232.82,289.86h49.36L298.08,416l24.68-126.14h49.09l23.31,126.41,18.37-130.52,46.62,7.95-35.1,174.4Z"/><path class="aaa66351-3531-4a65-a29f-4390d9ac0f13" d="M563.25,468.1l-8.5-37.29h-48l-9.05,37.29H448.62l51.56-178.24h63.61L614.52,468.1ZM531.16,329.35,515,394.88h31.54Z"/><path class="aaa66351-3531-4a65-a29f-4390d9ac0f13" d="M630.42,468.1V289.86h64.72c49.08,0,67.73,19.47,67.73,54.57,0,34.82-19.2,58.13-69.1,58.13H678.68V468.1Zm63.35-102c15.63,0,22.21-6,22.21-19.19s-7.13-19.75-22.21-19.75H678.68v38.94Z"/><path class="f18af5ca-21ba-4896-8540-21dc8806e9d8" d="M803.82,468.08v-88.8h34c18.86,0,28.28,8.06,28.28,23s-11.61,19.95-11.61,19.95,15.85,2.05,15.85,21c0,14.89-10,24.86-30.19,24.86Zm29.24-53c7.24,0,10.79-3.28,10.79-9.43s-3.55-9.15-12.16-9.15h-5.32v18.58ZM835,450.73c8.47,0,12.3-3.55,12.3-10,0-6.15-4.1-9.29-11.48-9.29h-9.42v19.26Z"/><path class="f18af5ca-21ba-4896-8540-21dc8806e9d8" d="M915.72,468.08a27.25,27.25,0,0,1-1.23-5.74s-7.79,7-18,7c-12,0-18.17-7-18.17-20.49V419.44c0-10.24-2.46-14.62-2.46-14.62l23.5-2v42.76c0,4.1,1.36,6.15,5.19,6.15,4.92,0,8.74-3.83,8.74-3.83V419.44c0-10.24-2.46-14.62-2.46-14.62l23.5-2v47.68c0,11.88,2.6,17.62,2.6,17.62Z"/><path class="f18af5ca-21ba-4896-8540-21dc8806e9d8" d="M945.65,445s11.75,9,23.09,9c3.82,0,5.73-1.37,5.73-4,0-9.7-30.6-1.51-30.6-26.64,0-12.85,9.84-20.91,26.23-20.91,15,0,23.37,4.1,23.37,4.1l-2.87,19.27s-10.25-7.66-20.63-7.66c-4,0-5.74,1.64-5.74,4.24,0,9.56,30.19,1.37,30.19,26.37,0,13.52-10,20.9-26.78,20.9a57.65,57.65,0,0,1-24.73-5.33Z"/><path class="f18af5ca-21ba-4896-8540-21dc8806e9d8" d="M1003.44,468.08V421c0-10.25-2.46-14.62-2.46-14.62l23.78-3.55v65.3Zm10.25-70.77c-8.33,0-12-4.64-12-11.2,0-7.38,4.64-11.48,12.29-11.48,7.24,0,11.89,4,11.89,11.2C1025.85,392.8,1021.2,397.31,1013.69,397.31Z"/><path class="f18af5ca-21ba-4896-8540-21dc8806e9d8" d="M1071.35,468.08v-41.8c0-4-1.37-6-5.19-6-4.92,0-8.61,3.83-8.61,3.83v44h-21.18V421c0-10.25-2.59-14.62-2.59-14.62l23.22-3.55v6.83s7-7.11,17.22-7.11c12,0,18.44,7,18.44,20.63v44.95Z"/><path class="f18af5ca-21ba-4896-8540-21dc8806e9d8" d="M1157,461.25s-8.34,8.2-24.46,8.2c-21.31,0-32-12.3-32-33.2,0-19.95,11.34-33.75,31-33.75,17.36,0,25.69,10.93,25.69,25.41a34,34,0,0,1-2.6,13.8h-34c1.37,7.66,7.52,10.93,14.62,10.93a31.68,31.68,0,0,0,17.22-5.05Zm-17.9-32.38s.13-1.23.13-2.32c0-4.92-2.73-8.34-8.47-8.34-5.46,0-9.29,4.24-10.11,10.66Z"/><path class="f18af5ca-21ba-4896-8540-21dc8806e9d8" d="M1166.58,445s11.75,9,23.09,9c3.83,0,5.74-1.37,5.74-4,0-9.7-30.6-1.51-30.6-26.64,0-12.85,9.83-20.91,26.23-20.91,15,0,23.36,4.1,23.36,4.1l-2.87,19.27s-10.24-7.66-20.63-7.66c-4,0-5.74,1.64-5.74,4.24,0,9.56,30.2,1.37,30.2,26.37,0,13.52-10,20.9-26.78,20.9a57.65,57.65,0,0,1-24.73-5.33Z"/><path class="f18af5ca-21ba-4896-8540-21dc8806e9d8" d="M1224.51,445s11.75,9,23.09,9c3.83,0,5.74-1.37,5.74-4,0-9.7-30.6-1.51-30.6-26.64,0-12.85,9.84-20.91,26.23-20.91,15,0,23.36,4.1,23.36,4.1l-2.87,19.27s-10.24-7.66-20.63-7.66c-4,0-5.73,1.64-5.73,4.24,0,9.56,30.19,1.37,30.19,26.37,0,13.52-10,20.9-26.78,20.9a57.65,57.65,0,0,1-24.73-5.33Z"/></svg>