<svg id="圖層_1" data-name="圖層 1" xmlns="http://www.w3.org/2000/svg" viewBox="0 0 560 295.33"><defs><style>.cls-1{fill:#3c4ea0;}</style></defs><title>SWAP_LOGO</title><path class="cls-1" d="M183.27,166.05q3.81-17.85,7.62-35.71c3.14-14.61,6.11-29.26,9.71-43.75.55-2.21,4-5,6.31-5.21a134.9,134.9,0,0,1,23.78.05c2.74.27,6.95,3.29,7.44,5.68,3,14.8,5,29.82,7.72,44.7,2.07,11.49,4.65,22.9,7,34.34l2.21-.25c3.53-25.56,7.23-51.1,10.52-76.7,1.26-9.8,2-10.92,11.6-9.68,6,.76,11.86,2,17.81,2.93,5,.76,6.28,4,5.41,8.31-3.1,15.46-6.35,30.88-9.49,46.33-1.39,6.87-2.68,13.76-4,20.65-3.33,17.26-6.43,34.56-10.25,51.72-.54,2.43-4.43,5.66-7,5.84a192.91,192.91,0,0,1-29.54,0c-3-.25-7.46-3.79-8.15-6.59-4-16.16-6.93-32.56-10.45-48.83-1.07-5-2.83-9.77-4.9-16.75-3.22,14.62-6.16,26.94-8.58,39.37-1.7,8.75-2.06,17.81-4.34,26.38-.74,2.8-5.47,6.15-8.61,6.42-9.79.83-19.69.3-29.55.31-5.9,0-8.39-2.86-9.39-8.81-3.94-23.43-8.48-46.76-12.69-70.14-2.8-15.58-5.27-31.22-8.23-46.77C134,83,137,80.9,143.1,81.1c32.67,1,25.72-6.61,30.55,26.89,2.77,19.19,5.09,38.45,7.61,57.67Z"/><path class="cls-1" d="M355.09,80.13c7.75,1,17.44-.45,22.69,3.71,5,3.93,5.53,13.68,7.56,21,5.09,18.33,9.83,36.75,14.87,55.08,3.84,14,7.58,28,12.05,41.72,3.4,10.49,1.49,14-9.34,14-6,0-12.18.74-18-.31a13.77,13.77,0,0,1-8.74-6.52c-2.31-4.71-2.23-10.55-4.19-15.5-1-2.61-4-5.59-6.57-6.2-4.41-1.05-9.24-.38-13.89-.38-16.85,0-18.35,1-20.07,18.16-.84,8.34-4.5,11.39-12.54,10.83-6-.42-12,.06-18.05-.14-5.49-.18-7.84-2.52-6.11-8.5,8.71-30,17.21-60,25.72-90.08,2.63-9.26,5-18.61,7.64-27.87,1.36-4.73,3.92-8.18,9.64-8s11.49,0,17.23,0Zm9.45,76.15-9.73-39.42c-5.1,12.48-8.34,24.78-11.15,37.17-.32,1.41,1.52,4.62,2.74,4.84C352.76,160,359.41,161.43,364.54,156.28Z"/><path class="cls-1" d="M39.92,174.09c12.62,4.66,23.46,9.29,34.7,12.53,4.61,1.34,10.44.71,15-.92,3.14-1.11,7-5.47,7.07-8.46s-3.37-7.72-6.45-9.12c-10.8-4.93-22.44-8.06-33.14-13.17C38.21,145.89,34.7,134.29,36.74,110c1-12.17,12.58-24.06,27-28,19.77-5.38,39.09-3.15,57.92,4,5.3,2,8.43,5,5.3,12.39s-3.17,16.27-4.78,25.73c-12-9.06-23.5-15.33-37.53-15.07-10.38.19-15.94,4.58-13,11.67,1.59,3.87,6.22,7.34,10.29,9.16,6.79,3,14.28,4.44,21.38,6.82,19.42,6.51,27.89,18.17,28.43,36.66.52,17.62-8.78,34.8-27.15,39.59-23.19,6-46.22,6-67.67-6.58-1.94-1.14-3.29-5.18-3.08-7.71a136.88,136.88,0,0,1,3.41-19.09C37.79,177.18,39.47,175,39.92,174.09Z"/><path class="cls-1" d="M427.43,147.79c0-19.18.15-38.37-.08-57.55-.08-6.09,1.78-9.32,8.31-9.17,18.07.41,36.2,0,54.21,1.22,13.34.91,25.71,5.89,31.62,19.23C534,129.74,521.66,163,484.73,165,464,166.15,464,165.9,464,186.62c0,6.85-.05,13.7,0,20.55,0,5.74-2.7,8.52-8.5,8.43s-11.51,0-17.26,0c-9.52-.05-10.71-1.19-10.75-11.07C427.38,185.6,427.43,166.7,427.43,147.79ZM464,124.13c1.45,4.76-4.19,13.91,8.38,13.35,13.34-.59,18.64-3.74,19-13.31S485.81,110,473,110C464,110,464,110,464,124.13Z"/></svg>