<svg id="b77e45e4-083f-443b-92dd-bd560d4b3736" data-name="圖層 1" xmlns="http://www.w3.org/2000/svg" viewBox="0 0 1366 768"><defs><style>.e7d04f24-1449-4a9f-b0c1-e6e3c63e8392{fill:#3f51b5;}</style></defs><title>SWAP-CI</title><path class="e7d04f24-1449-4a9f-b0c1-e6e3c63e8392" d="M96.11,433s43.25,40.78,105.66,40.78c23.09,0,34.89-8.35,34.89-25.55,0-50.12-149.88-17.2-149.88-136.61,0-61.92,42.75-96.81,118.92-96.81,69.29,0,106.14,25.06,106.14,25.06l-14.25,84s-41.28-40.3-92.88-40.3c-22.11,0-33.41,8.84-33.41,25.06,0,51.11,147.91,14.25,147.91,133.17,0,61.92-40.29,102.71-123.34,102.71-73.71,0-114.5-29-114.5-29Z"/><path class="e7d04f24-1449-4a9f-b0c1-e6e3c63e8392" d="M567.38,538.66,530.52,352.42,494.65,538.66H387.52l-59-319.41H417l28.5,226,44.23-226h88l41.77,226.54,32.92-233.92,83.54,14.25L673,538.66Z"/><path class="e7d04f24-1449-4a9f-b0c1-e6e3c63e8392" d="M920.7,538.66l-15.23-66.83h-86l-16.21,66.83h-88l92.39-319.41h114l90.91,319.41ZM863.21,290l-29,117.45h56.52Z"/><path class="e7d04f24-1449-4a9f-b0c1-e6e3c63e8392" d="M1041.1,538.66V219.25h116c88,0,121.38,34.88,121.38,97.79,0,62.4-34.4,104.17-123.84,104.17h-27V538.66Zm113.51-182.8c28,0,39.81-10.81,39.81-34.4s-12.78-35.38-39.81-35.38h-27v69.78Z"/></svg>