<svg id="f937a4b7-4924-4f5a-a31e-20488df1420a" data-name="圖層 1" xmlns="http://www.w3.org/2000/svg" viewBox="0 0 491.68 137.91"><defs><style>.e5d0d615-a234-4986-9227-dded9f4d8627{fill:#3e3a39;}.e0bb02f8-d5bc-45ba-af5e-4f88e4d56f7e{fill:none;}.f6064648-7cb4-45f8-92b4-bcd0c89f7fa5{fill:#c8c9ca;}</style></defs><title>1225SWAP_logo_測試用 (1)</title><path class="e5d0d615-a234-4986-9227-dded9f4d8627" d="M168.46,117.15c-12.61,0-22.55-2.36-31.08-9.35a4.24,4.24,0,0,1-.27-6.26l6-6a4.28,4.28,0,0,1,5.6-.36c5.59,4.1,12.55,5.53,20,5.53,10.87,0,16.71-4.11,16.71-11.67,0-3.32-.93-6.1-2.92-8s-4-2.65-8.36-3.32l-11.4-1.59c-8.1-1.19-14.07-3.71-18.31-7.83-4.51-4.51-6.77-10.61-6.77-18.57,0-16.85,12.47-28.65,32.9-28.65,11.11,0,19.6,2.32,26.89,7.88a4.23,4.23,0,0,1,.35,6.36L192.11,41a4.28,4.28,0,0,1-5.45.41c-5.34-3.68-11.31-4.25-16.61-4.25-9.82,0-14.59,5.44-14.59,11.94a9.12,9.12,0,0,0,2.78,6.76A16.22,16.22,0,0,0,167,59.58l11.14,1.59c8.63,1.19,14.07,3.58,18.05,7.3,5,4.77,7.29,11.67,7.29,20C203.48,106.8,188.23,117.15,168.46,117.15Z"/><path class="e5d0d615-a234-4986-9227-dded9f4d8627" d="M298.12,116.36h-9a4.26,4.26,0,0,1-4.07-3L272.69,72.47a4.25,4.25,0,0,0-8.14,0l-12.4,40.87a4.25,4.25,0,0,1-4.06,3h-9A4.25,4.25,0,0,1,235,113.2L212.07,27.25a4.26,4.26,0,0,1,4.11-5.35h10.36a4.25,4.25,0,0,1,4.13,3.24l10,40.87a4.25,4.25,0,0,0,8.21.17L260.83,25a4.25,4.25,0,0,1,4.08-3.07h7.41A4.24,4.24,0,0,1,276.4,25l12,41.27a4.26,4.26,0,0,0,8.22-.16l10.12-40.95a4.26,4.26,0,0,1,4.13-3.23h10.36a4.26,4.26,0,0,1,4.11,5.36l-23.06,85.95A4.26,4.26,0,0,1,298.12,116.36Z"/><path class="e5d0d615-a234-4986-9227-dded9f4d8627" d="M389.17,113.45l-3.64-10.9a4.24,4.24,0,0,0-4-2.91H354a4.26,4.26,0,0,0-4,2.88l-3.74,11a4.25,4.25,0,0,1-4,2.88H332.13a4.25,4.25,0,0,1-4-5.71L359.4,24.7a4.26,4.26,0,0,1,4-2.8h8.51a4.25,4.25,0,0,1,4,2.8l31.39,86a4.25,4.25,0,0,1-4,5.71H393.2A4.25,4.25,0,0,1,389.17,113.45ZM364,61.52l-5.89,16.95a4.25,4.25,0,0,0,4,5.65h11.58a4.25,4.25,0,0,0,4-5.61l-5.69-17A4.25,4.25,0,0,0,364,61.52Z"/><path class="e5d0d615-a234-4986-9227-dded9f4d8627" d="M457.66,80.8H443.74a4.25,4.25,0,0,0-4.25,4.26v27a4.26,4.26,0,0,1-4.26,4.26H425.3a4.25,4.25,0,0,1-4.25-4.26V26.15a4.25,4.25,0,0,1,4.25-4.25h32.36c19.5,0,31.18,13.4,31.18,29.45S477.16,80.8,457.66,80.8Zm-.93-42.45h-13a4.25,4.25,0,0,0-4.25,4.25V60a4.25,4.25,0,0,0,4.25,4.25h13c8.36,0,13.67-5.17,13.67-12.87S465.09,38.35,456.73,38.35Z"/><path class="e0bb02f8-d5bc-45ba-af5e-4f88e4d56f7e" d="M53.62,82.44C39.78,85,25.72,86.71,11.7,88.28A38.89,38.89,0,0,0,12,95.83a37.35,37.35,0,0,0,22.83,29.53c11.36,4.74,24.53,2.85,34.7-3.79-3.51-8.17-7-16.35-10.29-24.6C57.3,92.16,55.4,87.32,53.62,82.44Z"/><path class="e0bb02f8-d5bc-45ba-af5e-4f88e4d56f7e" d="M45.62,55.16c-.31-1.5-.6-3-.86-4.57-7.51,2.76-14.82,6.32-20.7,11.55a37.13,37.13,0,0,0-11,18c12.68-1.41,25.39-3,37.91-5.27A170.53,170.53,0,0,1,45.62,55.16Z"/><path class="e0bb02f8-d5bc-45ba-af5e-4f88e4d56f7e" d="M91.39,62.78A38.29,38.29,0,0,0,98,58.2a28.39,28.39,0,0,0,9.37-21.57c-7.51,1-15,2.21-22.43,3.59C87.4,47.65,89.63,55.16,91.39,62.78Z"/><path class="e0bb02f8-d5bc-45ba-af5e-4f88e4d56f7e" d="M90.49,11.4A26.36,26.36,0,0,0,73.6,10.14q1.61,4,3.18,8c1.87,4.79,3.72,9.62,5.47,14.48,7.91-1.49,15.86-2.77,23.85-3.9A27.78,27.78,0,0,0,90.49,11.4Z"/><path class="f6064648-7cb4-45f8-92b4-bcd0c89f7fa5" d="M85.54,74.18c-.43-2.68-1-5.34-1.57-8-1.06-4.66-2.34-9.27-3.69-13.79-1-3.55-2.18-7.09-3.34-10.61-.85-2.55-1.71-5.09-2.6-7.62C71.82,27.07,69.11,20,66.29,13a27.51,27.51,0,0,0-3,1.89c-8.72,6.32-11.52,15.32-11.5,24.87A59.22,59.22,0,0,0,52.46,48a127.57,127.57,0,0,0,4.3,18.24c.7,2.33,1.44,4.66,2.2,7q1.26,3.81,2.61,7.61c4.29,12,9.25,23.77,14.33,35.48A38.41,38.41,0,0,0,86.7,90.76,84.62,84.62,0,0,0,85.54,74.18Z"/><path class="e5d0d615-a234-4986-9227-dded9f4d8627" d="M115.34,35.57a36,36,0,0,0-1.2-7.95,35.27,35.27,0,0,0-43.62-25c-.46.13-.93.27-1.39.42a38.37,38.37,0,0,0-5.89,2.52A37,37,0,0,0,45.48,26.3a41.79,41.79,0,0,0-1.71,16.08,82.76,82.76,0,0,0-21.55,11A45.93,45.93,0,0,0,4.58,81a48.93,48.93,0,0,0-1,7.86v.3a45.47,45.47,0,0,0,17.82,37.7,44.94,44.94,0,0,0,41.88,6.61A47.94,47.94,0,0,0,72.7,129a49.15,49.15,0,0,0,6.58-4.88,45.63,45.63,0,0,0,13.58-20.93C96,92.84,95,81.51,93.08,70.89a54.41,54.41,0,0,0,8.41-5.23A36.1,36.1,0,0,0,115.36,38C115.38,37.21,115.37,36.39,115.34,35.57ZM90.49,11.4A27.78,27.78,0,0,1,106.1,28.7c-8,1.13-15.94,2.41-23.85,3.9-1.75-4.86-3.6-9.69-5.47-14.48q-1.57-4-3.18-8A26.36,26.36,0,0,1,90.49,11.4ZM24.06,62.14c5.88-5.23,13.19-8.79,20.7-11.55.26,1.55.55,3.07.86,4.57A170.53,170.53,0,0,0,51,74.82c-12.52,2.32-25.23,3.86-37.91,5.27A37.13,37.13,0,0,1,24.06,62.14Zm10.75,63.22A37.35,37.35,0,0,1,12,95.83a38.89,38.89,0,0,1-.28-7.55c14-1.57,28.08-3.26,41.92-5.84,1.78,4.88,3.68,9.72,5.6,14.53,3.31,8.25,6.78,16.43,10.29,24.6C59.34,128.21,46.17,130.1,34.81,125.36ZM86.7,90.76a38.41,38.41,0,0,1-10.8,25.57c-5.08-11.71-10-23.48-14.33-35.48q-1.35-3.8-2.61-7.61c-.76-2.32-1.5-4.65-2.2-7A127.57,127.57,0,0,1,52.46,48a59.22,59.22,0,0,1-.63-8.25c0-9.55,2.78-18.55,11.5-24.87a27.51,27.51,0,0,1,3-1.89c2.82,7,5.53,14.06,8,21.17.89,2.53,1.75,5.07,2.6,7.62,1.16,3.52,2.29,7.06,3.34,10.61,1.35,4.52,2.63,9.13,3.69,13.79.6,2.64,1.14,5.3,1.57,8A84.62,84.62,0,0,1,86.7,90.76ZM98,58.2a38.29,38.29,0,0,1-6.58,4.58c-1.76-7.62-4-15.13-6.48-22.56,7.43-1.38,14.92-2.55,22.43-3.59A28.39,28.39,0,0,1,98,58.2Z"/></svg>