<svg id="圖層_1" data-name="圖層 1" xmlns="http://www.w3.org/2000/svg" viewBox="0 0 560 295.33"><defs><style>.cls-1{fill:#101735;}</style></defs><title>SWAP_LOGO</title><path class="cls-1" d="M183.27,165.71q3.81-17.85,7.62-35.7C194,115.4,197,100.75,200.6,86.25c.55-2.2,4-5,6.31-5.2a134,134,0,0,1,23.78,0c2.74.27,6.95,3.3,7.44,5.69,3,14.8,5,29.81,7.72,44.69,2.07,11.5,4.65,22.9,7,34.35l2.21-.25c3.53-25.56,7.23-51.11,10.52-76.7,1.26-9.81,2-10.93,11.6-9.69,6,.77,11.86,2,17.81,2.94,5,.76,6.28,4,5.41,8.3-3.1,15.46-6.35,30.89-9.49,46.34-1.39,6.87-2.68,13.76-4,20.64-3.33,17.26-6.43,34.57-10.25,51.72-.54,2.44-4.43,5.67-7,5.84a191.64,191.64,0,0,1-29.54,0c-3-.26-7.46-3.8-8.15-6.6-4-16.15-6.93-32.55-10.45-48.83-1.07-5-2.83-9.77-4.9-16.74-3.22,14.61-6.16,26.94-8.58,39.36-1.7,8.75-2.06,17.81-4.34,26.39-.74,2.8-5.47,6.14-8.61,6.41-9.79.83-19.69.31-29.55.31-5.9,0-8.39-2.86-9.39-8.81-3.94-23.43-8.48-46.75-12.69-70.14-2.8-15.58-5.27-31.22-8.23-46.76-1.32-6.88,1.68-9,7.83-8.77,32.67,1,25.72-6.6,30.55,26.9,2.77,19.19,5.09,38.44,7.61,57.67Z"/><path class="cls-1" d="M355.09,79.8c7.75,1,17.44-.45,22.69,3.71,5,3.93,5.53,13.67,7.56,21,5.09,18.32,9.83,36.74,14.87,55.08,3.84,13.95,7.58,28,12.05,41.72,3.4,10.48,1.49,13.94-9.34,13.95-6,0-12.18.75-18-.31a13.73,13.73,0,0,1-8.74-6.52c-2.31-4.71-2.23-10.54-4.19-15.49-1-2.61-4-5.59-6.57-6.21-4.41-1-9.24-.37-13.89-.37-16.85,0-18.35,1-20.07,18.15-.84,8.34-4.5,11.4-12.54,10.84-6-.42-12,.06-18.05-.14-5.49-.18-7.84-2.53-6.11-8.51,8.71-30,17.21-60,25.72-90.07,2.63-9.27,5-18.61,7.64-27.87,1.36-4.73,3.92-8.19,9.64-8s11.49,0,17.23,0ZM364.54,156l-9.73-39.43c-5.1,12.48-8.34,24.78-11.15,37.18-.32,1.4,1.52,4.62,2.74,4.83C352.76,159.65,359.41,161.1,364.54,156Z"/><path class="cls-1" d="M39.92,173.75c12.62,4.67,23.46,9.29,34.7,12.54,4.61,1.33,10.44.7,15-.93,3.14-1.11,7-5.46,7.07-8.45s-3.37-7.72-6.45-9.13c-10.8-4.93-22.44-8.05-33.14-13.17C38.21,145.56,34.7,134,36.74,109.7c1-12.17,12.58-24.06,27-28,19.77-5.39,39.09-3.16,57.92,4,5.3,2,8.43,5,5.3,12.39s-3.17,16.26-4.78,25.73c-12-9.06-23.5-15.34-37.53-15.08-10.38.19-15.94,4.58-13,11.67,1.59,3.88,6.22,7.34,10.29,9.17,6.79,3,14.28,4.44,21.38,6.82,19.42,6.51,27.89,18.17,28.43,36.65.52,17.63-8.78,34.8-27.15,39.59-23.19,6-46.22,6-67.67-6.58-1.94-1.13-3.29-5.17-3.08-7.71a136.48,136.48,0,0,1,3.41-19.08C37.79,176.85,39.47,174.65,39.92,173.75Z"/><path class="cls-1" d="M427.43,147.45c0-19.18.15-38.36-.08-57.54-.08-6.09,1.78-9.33,8.31-9.18,18.07.42,36.2,0,54.21,1.22,13.34.92,25.71,5.89,31.62,19.24,12.51,28.21.17,61.45-36.76,63.49-20.73,1.14-20.74.89-20.75,21.6,0,6.85-.05,13.7,0,20.55,0,5.74-2.7,8.53-8.5,8.44s-11.51,0-17.26,0c-9.52-.05-10.71-1.19-10.75-11.07C427.38,185.27,427.43,166.36,427.43,147.45ZM464,123.79c1.45,4.76-4.19,13.92,8.38,13.36,13.34-.59,18.64-3.74,19-13.32s-5.57-14.15-18.4-14.16C464,109.67,464,109.67,464,123.79Z"/></svg>