<svg width="538" height="511" viewBox="0 0 538 511" fill="none" xmlns="http://www.w3.org/2000/svg">
<path fill-rule="evenodd" clip-rule="evenodd" d="M403.39 340.794L408.707 337.294C420.092 329.799 433.404 325.774 447.024 325.708L457.716 325.657C464.488 325.624 471.242 324.96 477.891 323.674L507.028 318.037L510.402 316.396C514.739 314.288 519.959 316.096 522.061 320.436C522.309 320.946 522.506 321.48 522.649 322.029L529.201 347.03L523.116 339.296C517.647 332.344 508.37 329.637 500.018 332.555L435.147 355.222C422.403 359.675 408.423 353.323 403.39 340.794Z" fill="#FFB391"/>
<path fill-rule="evenodd" clip-rule="evenodd" d="M452.468 325.926L416.419 342.601L425.845 327.341C432.254 326.501 437.159 325.99 440.562 325.809C443.965 325.628 447.934 325.667 452.468 325.926Z" fill="#CF8B54"/>
<path fill-rule="evenodd" clip-rule="evenodd" d="M509.65 316.535L518.879 329.817C519.465 330.66 519.257 331.82 518.414 332.408C517.752 332.869 516.869 332.851 516.227 332.363L524.089 341.502L529.198 347.061C531.673 345.986 532.811 343.107 531.739 340.63C531.686 340.508 531.629 340.389 531.566 340.271L523.104 324.404L526.069 323.44L523.767 316.357C519.477 313.602 513.962 313.654 509.719 316.489L509.65 316.535Z" fill="#4A4EC6"/>
<path fill-rule="evenodd" clip-rule="evenodd" d="M378.592 317.803L382.955 322.437C392.299 332.361 398.56 344.792 400.98 358.219L402.879 368.759C404.082 375.434 405.902 381.981 408.318 388.318L418.901 416.08L422.121 420.538C424.946 424.449 424.069 429.915 420.162 432.747C420.123 432.775 420.084 432.803 420.044 432.83L418.091 434.198L358.121 330.581L378.592 317.803Z" fill="#FFB391"/>
<path fill-rule="evenodd" clip-rule="evenodd" d="M387.872 329.988L358.68 332.044L366.535 345.783L388.796 333.837C388.524 332.543 388.215 331.26 387.872 329.988Z" fill="#CF8B54"/>
<path fill-rule="evenodd" clip-rule="evenodd" d="M417.715 414.223L419.911 430.26C420.051 431.278 419.34 432.217 418.324 432.358C417.526 432.468 416.749 432.05 416.399 431.323L419.254 443.046L421.282 450.324C423.97 450.491 426.286 448.442 426.454 445.747C426.462 445.614 426.465 445.481 426.463 445.348L426.12 427.355L429.194 427.844L430.354 420.483C427.785 416.077 422.855 413.615 417.797 414.213L417.715 414.223Z" fill="#4A4EC6"/>
<mask id="mask0" mask-type="alpha" maskUnits="userSpaceOnUse" x="356" y="210" width="85" height="134">
<path d="M422.027 210.154C435.778 224.739 441.702 243.247 439.799 265.678C437.896 288.109 436.627 308.952 435.993 328.206C428.53 337.775 420.821 342.84 412.867 343.399C404.913 343.959 386.279 339.9 356.965 331.223L366.893 236.155C367.595 229.432 369.073 222.813 371.299 216.431L372.267 213.653L422.027 210.154Z" fill="white"/>
</mask>
<g mask="url(#mask0)">
<path d="M422.018 210.152C435.769 224.739 441.694 243.249 439.793 265.681C437.892 288.113 436.625 308.957 435.993 328.212C428.531 337.781 420.824 342.845 412.871 343.404C404.918 343.963 386.285 339.902 356.974 331.222L366.892 236.15C367.594 229.427 369.071 222.808 371.296 216.425L372.264 213.647L422.018 210.152Z" fill="#18233D"/>
<path d="M415.788 210.587C426.116 225.09 431.414 243.665 431.68 266.31C431.946 288.956 431.632 312.595 430.738 337.228" stroke="#445478" stroke-width="0.81618"/>
</g>
<path fill-rule="evenodd" clip-rule="evenodd" d="M415.478 125.917L422.029 128.138L411.007 149.172L401.464 134.759C391.596 138.937 386.663 141.025 386.663 141.025C386.663 141.025 388.804 135.95 393.086 125.798L415.478 125.917Z" stroke="white" stroke-width="0.81618" stroke-linecap="round"/>
<path fill-rule="evenodd" clip-rule="evenodd" d="M430.318 144.787C434.549 155.874 431.775 177.659 421.994 210.143L373.321 213.557L368.61 177.825C362.154 172.87 360.433 166.725 363.449 159.389C366.464 152.053 370.012 143.641 374.092 134.152L394.654 125.69C414.199 127.334 426.087 133.7 430.318 144.787Z" fill="#D7E3FF"/>
<path d="M388.188 132.71L393.54 133.752L388.543 159.495L383.191 158.453L388.188 132.71Z" stroke="#18233D" stroke-width="0.81618" stroke-linecap="round"/>
<path fill-rule="evenodd" clip-rule="evenodd" d="M310.429 113.943C312.325 121.039 316.308 129.497 323.705 127.511C331.103 125.524 331.566 111.806 325.419 96.5344C321.321 86.3533 315.785 73.0055 308.812 56.491L308.958 56.1918C311.378 51.2183 312.807 45.8209 313.164 40.3018L314.426 36.3093C314.596 35.7724 314.332 35.1943 313.816 34.9714C313.267 34.7347 312.63 34.8587 312.209 35.2838L311.313 36.1896C310.263 37.2516 309.446 38.5219 308.916 39.9186L307.566 43.4744L305.002 26.9705C304.881 26.1905 304.186 25.6322 303.399 25.6831C302.627 25.733 302.036 26.3919 302.069 27.1657L302.591 39.2478L297.982 25.9561C297.711 25.1735 296.882 24.734 296.082 24.9488C295.286 25.1626 294.795 25.9612 294.962 26.7689L297.816 40.5304L292.165 30.9059C291.758 30.2133 290.88 29.9623 290.168 30.3356C289.462 30.7061 289.179 31.5725 289.531 32.2882C293.125 39.6011 294.771 43.1255 294.467 42.8615C294.175 42.607 292.88 40.9867 290.583 38.0005C290.185 37.4829 289.465 37.3393 288.899 37.6642C288.349 37.9794 288.152 38.6771 288.456 39.2331L294.837 50.9095L298.345 58.7464C305.136 90.8134 309.164 109.212 310.429 113.943Z" fill="#FFB391"/>
<path d="M307.126 42.8035C302.88 46.5997 301.022 49.4847 301.549 51.4584" stroke="white" stroke-width="0.81618" stroke-linecap="round"/>
<path d="M293.432 43.2237C295.935 40.7234 299.479 39.2285 304.065 38.739" stroke="white" stroke-width="0.81618" stroke-linecap="round"/>
<path fill-rule="evenodd" clip-rule="evenodd" d="M337.942 120.801L329.435 104.491L306.412 111.593L309.621 131.178C310.881 138.87 316.555 145.086 324.086 147.027L366.528 157.969L381.244 130.722L337.942 120.801Z" fill="#D7E3FF"/>
<path d="M337.915 120.391L334.122 128.598" stroke="#18233D" stroke-width="0.81618" stroke-linecap="round"/>
<path d="M365.675 158.537L371.03 139.971" stroke="#18233D" stroke-width="0.81618" stroke-linecap="round"/>
<path fill-rule="evenodd" clip-rule="evenodd" d="M478.479 180.325C475.972 173.422 471.268 165.343 464.071 167.969C456.874 170.594 457.606 184.299 465.058 198.975C470.026 208.76 476.703 221.573 485.087 237.415L484.967 237.726C482.989 242.891 482.035 248.393 482.159 253.922L481.249 258.009C481.127 258.559 481.44 259.112 481.974 259.289C482.54 259.477 483.165 259.297 483.547 258.837L484.36 257.857C485.315 256.707 486.018 255.37 486.424 253.933L487.46 250.272L491.45 266.489C491.638 267.256 492.38 267.751 493.16 267.632C493.924 267.514 494.456 266.806 494.355 266.039L492.785 254.048L498.532 266.887C498.87 267.642 499.735 268.008 500.512 267.724C501.287 267.442 501.707 266.603 501.47 265.813L497.43 252.354L503.897 261.448C504.363 262.102 505.26 262.275 505.936 261.841C506.607 261.411 506.814 260.523 506.401 259.841C502.184 252.87 500.238 249.503 500.563 249.739C500.876 249.967 502.307 251.468 504.856 254.242C505.298 254.723 506.027 254.803 506.563 254.43C507.084 254.068 507.219 253.356 506.868 252.829L499.495 241.754L495.319 234.254C485.763 202.903 480.15 184.927 478.479 180.325Z" fill="#FFB391"/>
<path fill-rule="evenodd" clip-rule="evenodd" d="M411.11 164.204L444.827 175.754L461.213 197.348L483.394 192.656L478.663 176.545C477.273 171.812 475.565 167.18 473.55 162.679L473.263 162.037C471.132 157.276 467.298 153.489 462.516 151.421L418.605 132.437L411.11 164.204Z" fill="#D7E3FF"/>
<path d="M445.848 176.095L455.428 166.876" stroke="#18233D" stroke-width="0.81618" stroke-linecap="round"/>
<path fill-rule="evenodd" clip-rule="evenodd" d="M424.057 121.541C422.519 93.8514 418.396 77.2164 411.688 71.6365C404.98 66.0566 396.49 65.6335 386.219 70.3673C382.096 70.2666 379.2 71.4256 377.529 73.8443C375.023 77.4724 374.972 84.6659 382.614 88.4397C386.554 90.3855 383.731 111.059 380.977 123.381C383.292 125.868 397.652 125.255 424.057 121.541Z" fill="#18233D"/>
<path fill-rule="evenodd" clip-rule="evenodd" d="M404.036 99.8986C402.892 117.094 405.568 127.132 412.065 130.013L389.088 141.133L385.941 129.686C388.148 123.915 389.535 115.017 390.101 102.993L404.036 99.8986Z" fill="#FFB391"/>
<path fill-rule="evenodd" clip-rule="evenodd" d="M389.949 96.9147L388.865 114.021C396.134 109.421 400.806 104.444 402.882 99.089L390.028 96.8624C390.002 96.8798 389.975 96.8972 389.949 96.9147Z" fill="#CF8B54"/>
<path fill-rule="evenodd" clip-rule="evenodd" d="M377.666 81.6039C374.388 98.8518 375.432 108.576 380.798 110.777C388.848 114.078 402.514 101.692 404.125 99.9648C407.934 100.98 410.455 100.384 411.688 98.1776C413.538 94.8675 412.998 91.1151 406.853 91.5468C400.707 91.9785 386.9 86.1208 384.952 77.6859C381.722 76.5442 379.293 77.8502 377.666 81.6039Z" fill="#FFB391"/>
<path d="M379.232 85.5591C382.173 86.1599 382.823 88.2235 381.182 91.7502C380.022 94.0443 378.882 96.3686 377.763 98.7231L380.668 98.519" stroke="#18233D" stroke-width="0.81618" stroke-linecap="round"/>
<path d="M409.723 96.4839L404.799 97.8335" stroke="#18233D" stroke-width="0.81618" stroke-linecap="round"/>
<path d="M393.059 88.3818C391.057 86.8063 389.23 86.2596 387.577 86.7414" stroke="#18233D" stroke-width="0.81618" stroke-linecap="round"/>
<path d="M387.262 91.0241C386.711 91.0628 386.232 90.6467 386.194 90.0946C386.155 89.5425 386.572 89.0635 387.123 89.0248C387.675 88.986 388.153 89.4021 388.192 89.9542C388.23 90.5063 387.814 90.9853 387.262 91.0241Z" fill="#18233D"/>
<path d="M379.133 89.5832C378.582 89.6219 378.103 89.2058 378.065 88.6537C378.027 88.1016 378.443 87.6226 378.994 87.5838C379.546 87.5451 380.024 87.9612 380.063 88.5133C380.101 89.0654 379.685 89.5444 379.133 89.5832Z" fill="#18233D"/>
<path fill-rule="evenodd" clip-rule="evenodd" d="M384.036 102.302L379.042 102.653C379.225 103.979 379.981 104.596 381.312 104.502C382.643 104.409 383.551 103.675 384.036 102.302Z" fill="white"/>
<path d="M431.784 171.049C424.306 167.855 421.523 162.28 423.434 154.325" stroke="#18233D" stroke-width="0.81618" stroke-linecap="round"/>
<path fill-rule="evenodd" clip-rule="evenodd" d="M329.443 74.8299C333.11 74.3277 335.627 73.5973 336.994 72.6385C338.361 71.6797 339.907 69.5601 341.632 66.2798C341.197 69.6179 341.691 72.3046 343.113 74.3397C344.536 76.3748 346.887 77.7585 350.167 78.4906C346.444 78.8631 343.888 79.5368 342.497 80.5119C341.107 81.487 339.601 83.6633 337.978 87.0407C337.838 83.1487 337.281 80.5063 336.308 79.1134C335.334 77.7205 333.046 76.2927 329.443 74.8299Z" fill="#FDB156"/>
<path fill-rule="evenodd" clip-rule="evenodd" d="M183.281 27.8462C190.229 26.8947 194.998 25.5107 197.588 23.694C200.178 21.8774 203.107 17.8614 206.377 11.646C205.552 17.9709 206.488 23.0613 209.183 26.9174C211.878 30.7735 216.333 33.3951 222.548 34.7823C215.494 35.488 210.65 36.7646 208.016 38.6121C205.382 40.4597 202.527 44.5832 199.453 50.9826C199.188 43.6082 198.133 38.6015 196.288 35.9623C194.443 33.3232 190.108 30.6178 183.281 27.8462Z" fill="#FDB156"/>
<path fill-rule="evenodd" clip-rule="evenodd" d="M498.511 173.173C505.46 172.221 510.229 170.837 512.819 169.021C515.408 167.204 518.338 163.188 521.607 156.973C520.783 163.298 521.718 168.388 524.413 172.244C527.109 176.1 531.564 178.722 537.779 180.109C530.724 180.815 525.88 182.091 523.246 183.939C520.612 185.786 517.758 189.91 514.683 196.309C514.418 188.935 513.363 183.928 511.519 181.289C509.674 178.65 505.338 175.944 498.511 173.173Z" fill="white"/>
<path fill-rule="evenodd" clip-rule="evenodd" d="M39.2998 343.952C44.5111 343.238 48.0879 342.2 50.0303 340.838C51.9728 339.475 54.1698 336.463 56.6216 331.802C56.0033 336.545 56.7049 340.363 58.7264 343.255C60.7479 346.147 64.0893 348.114 68.7505 349.154C63.4596 349.683 59.8264 350.641 57.8509 352.026C55.8755 353.412 53.7347 356.505 51.4287 361.304C51.23 355.773 50.4388 352.018 49.0553 350.039C47.6718 348.06 44.4199 346.031 39.2998 343.952Z" fill="#FDB156"/>
<path fill-rule="evenodd" clip-rule="evenodd" d="M183.342 430.401L180.436 437.482L186.658 461.385L172.082 449.132C165.991 444.012 164.452 435.252 168.431 428.364L171.758 422.607" fill="#FEBE89"/>
<path fill-rule="evenodd" clip-rule="evenodd" d="M166.433 428.686L171.04 433.999C173.76 437.135 177.805 438.79 181.937 438.456L190.269 465.689C187.727 466.829 184.737 466.129 182.96 463.978L168.794 446.832L166.405 449.685L159.812 444.143C160 438.492 162.247 433.107 166.13 429.006L166.433 428.686Z" fill="#18233D"/>
<path fill-rule="evenodd" clip-rule="evenodd" d="M42.2 467.874L32.7001 482.67L22.5218 504.37L17.9087 484.349C16.4115 477.85 18.9954 471.09 24.4432 467.253C24.9945 466.865 25.5232 466.472 26.0292 466.073C28.917 463.797 32.7845 459.996 37.6317 454.671" fill="#FEBE89"/>
<path fill-rule="evenodd" clip-rule="evenodd" d="M26.031 466.072L26.5173 473.091C26.8043 477.234 29.0416 480.993 32.5435 483.216L22.8242 509.984C20.1077 509.363 18.1394 507.002 18.013 504.214L17.0054 481.986L13.3807 482.825L11.4457 474.427C14.994 470.027 20.0282 467.081 25.5969 466.145L26.031 466.072Z" fill="#18233D"/>
<path d="M156.761 235.19L114.399 351.986C111.843 359.032 108.57 365.794 104.631 372.168L42.0452 473.416L23.9787 463.68L79.9791 341.421L96.9017 260.588C99.5507 247.935 105.487 236.208 114.111 226.589L156.761 235.19Z" fill="#85A9FF"/>
<path opacity="0.218797" fill-rule="evenodd" clip-rule="evenodd" d="M121.056 332.079L126.224 252.459L141.137 275.39L121.056 332.079Z" fill="#4873DB"/>
<path d="M130.031 272.251L101.221 360.581L36.2333 472.399" stroke="white" stroke-width="0.81618"/>
<mask id="mask1" mask-type="alpha" maskUnits="userSpaceOnUse" x="116" y="223" width="110" height="207">
<path d="M161.103 236.099L207.217 271.497C222.702 283.384 229.239 303.61 223.637 322.303L191.413 429.818L169.901 424.544L190.247 316.918C160.828 297.638 139.473 283.506 126.182 274.519C117.251 259.716 114.316 242.703 117.379 223.479L161.103 236.099Z" fill="white"/>
</mask>
<g mask="url(#mask1)">
<path d="M167.505 236.327L211.03 274.854C225.646 287.792 230.755 308.424 223.862 326.681L184.217 431.689L163.127 424.929L190.933 318.981C162.935 297.698 142.621 282.111 129.991 272.22C122.116 256.83 120.377 239.653 124.773 220.69L167.505 236.327Z" fill="#85A9FF"/>
<path d="M156.699 235.151L206.146 288.401C214.441 297.334 217.304 310.035 213.644 321.657L178.182 434.252" stroke="white" stroke-width="0.81618"/>
</g>
<path fill-rule="evenodd" clip-rule="evenodd" d="M148.143 148.444C153.175 133.317 156.45 121.437 157.966 112.807C160.241 99.8604 162.06 89.6282 176.369 90.5529C184.277 91.0641 189.109 91.6024 190.644 96.0951C191.887 99.7306 190.616 106.919 189.864 111.201C191.468 117.55 192.053 120.861 191.618 121.133C191.184 121.405 190.459 121.51 189.444 121.446C188.931 127.645 187.876 131.03 186.279 131.601C184.683 132.171 181.448 131.787 176.575 130.449C174.667 141.307 173.359 148.751 172.651 152.781C171.943 156.812 163.773 155.366 148.143 148.444Z" fill="#FFD1AB"/>
<path fill-rule="evenodd" clip-rule="evenodd" d="M154.691 127.199L167.484 129.463L176.156 114.082C175.463 111.848 175.892 109.411 177.441 106.771C179.764 102.811 181.952 103.776 180.652 111.176C179.351 118.577 182.743 112.795 183.401 109.046C184.06 105.298 194.722 104.129 196.559 93.6736C197.783 86.7035 194.079 83.4388 185.447 83.8796C186.659 79.2026 181.985 78.8095 171.425 82.7004C160.864 86.5913 155.813 94.6451 156.271 106.862L154.691 127.199Z" fill="#18233D"/>
<path fill-rule="evenodd" clip-rule="evenodd" d="M144.571 148.33C147.519 145.121 151.16 143.56 155.496 143.646C162 143.774 176.157 141.573 178.88 152.009L144.571 148.33Z" fill="#85A9FF"/>
<path fill-rule="evenodd" clip-rule="evenodd" d="M253.428 152.138C250.837 161.199 245.571 171.97 236.277 169.298C226.982 166.627 226.772 149.041 234.96 129.576C240.418 116.6 247.78 99.59 257.046 78.5467L256.893 78.2125C253.955 71.7632 252.29 64.8073 251.99 57.7279L250.502 52.584C250.302 51.894 250.651 51.1643 251.312 50.8864C252.009 50.5932 252.816 50.7645 253.335 51.3159L254.441 52.4899C255.739 53.8686 256.734 55.5042 257.362 57.2911L258.977 61.8884L262.674 40.7567C262.846 39.7733 263.737 39.0826 264.731 39.1613C265.704 39.2383 266.435 40.0829 266.373 41.0573L265.381 56.5569L271.58 39.5747C271.938 38.5929 272.994 38.056 273.998 38.3447C274.998 38.6322 275.601 39.6512 275.371 40.6664L271.381 58.2817L278.8 46.0224C279.324 45.1562 280.438 44.8586 281.325 45.3479C282.209 45.8356 282.547 46.9373 282.089 47.8366C277.338 57.1627 275.158 61.6591 275.548 61.3256C275.925 61.0041 277.61 58.945 280.602 55.1482C281.112 54.5016 282.023 54.3355 282.729 54.7605C283.417 55.1747 283.65 56.0614 283.256 56.7603L274.86 71.6322L270.213 81.6147C260.751 122.59 255.156 146.098 253.428 152.138Z" fill="#FFD1AB"/>
<path fill-rule="evenodd" clip-rule="evenodd" d="M78.5018 169.793L73.671 173.806C68.9331 177.741 65.8064 183.284 64.8858 189.38L54.6929 256.866C52.9375 267.034 52.629 272.915 53.7672 274.507C55.3028 276.656 61.3804 281.152 63.8121 280.703C66.1713 280.268 67.4986 277.988 67.7942 273.863C71.1524 273.635 71.0884 268.731 67.6023 259.149C75.4537 238.265 80.5348 223.95 82.8455 216.203C85.1563 208.456 86.3211 201.832 86.34 196.331L100.421 189.391L78.5018 169.793Z" fill="#FFD1AB"/>
<path fill-rule="evenodd" clip-rule="evenodd" d="M76.4558 169.791C103.121 151.534 122.427 143.463 134.375 145.575C152.298 148.745 182.079 151.11 192.275 149.333C199.073 148.149 211.348 145.908 229.101 142.61L242.365 173.26L199.673 192.993C192.292 217.713 182.685 233.348 170.853 239.897L111.522 229.405L116.968 186.705L91.1324 196.427L76.4558 169.791Z" fill="#18233D"/>
<path fill-rule="evenodd" clip-rule="evenodd" d="M243.272 339.288C260.155 331.287 272.503 319.686 280.314 304.485L309.809 339.288C296.745 357.478 281.162 367.367 263.061 368.953L243.272 339.288Z" fill="#F1F5FF"/>
<path d="M280.359 317.597L295.63 337.265" stroke="#18233D" stroke-width="0.81618" stroke-linecap="round"/>
<path d="M274.905 324.153L284.313 336.592" stroke="#18233D" stroke-width="0.81618" stroke-linecap="round"/>
<path d="M270.542 329.617L283.222 345.597" stroke="#18233D" stroke-width="0.81618" stroke-linecap="round"/>
<path d="M263.997 335.08L267.743 340.153" stroke="#18233D" stroke-width="0.81618" stroke-linecap="round"/>
<path fill-rule="evenodd" clip-rule="evenodd" d="M483.528 372.289L464.269 401.16C446.588 399.51 431.334 389.835 418.487 372.095L447.181 338.237C454.977 353.023 467.098 364.376 483.528 372.289L483.528 372.289Z" fill="#F1F5FF" stroke="#F1F5FF" stroke-width="0.81618"/>
<path d="M447.246 350.377L431.975 370.045" stroke="#18233D" stroke-width="0.81618" stroke-linecap="round"/>
<path d="M452.699 356.934L443.291 369.372" stroke="#18233D" stroke-width="0.81618" stroke-linecap="round"/>
<path d="M457.062 362.396L444.382 378.377" stroke="#18233D" stroke-width="0.81618" stroke-linecap="round"/>
<path d="M463.607 367.86L459.862 372.934" stroke="#18233D" stroke-width="0.81618" stroke-linecap="round"/>
</svg>
