<svg width="41" height="40" viewBox="0 0 41 40" fill="none" xmlns="http://www.w3.org/2000/svg">
<path d="M20.5 9.99996C23.1522 9.99996 25.6957 11.0535 27.5711 12.9289C29.4464 14.8043 30.5 17.3478 30.5 20C30.5 23.7 28.4833 26.9333 25.5 28.6666V31.6666C25.5 32.1087 25.3244 32.5326 25.0118 32.8451C24.6993 33.1577 24.2754 33.3333 23.8333 33.3333H17.1667C16.7246 33.3333 16.3007 33.1577 15.9882 32.8451C15.6756 32.5326 15.5 32.1087 15.5 31.6666V28.6666C12.5167 26.9333 10.5 23.7 10.5 20C10.5 17.3478 11.5536 14.8043 13.4289 12.9289C15.3043 11.0535 17.8478 9.99996 20.5 9.99996ZM23.8333 35V36.6666C23.8333 37.1087 23.6577 37.5326 23.3452 37.8451C23.0326 38.1577 22.6087 38.3333 22.1667 38.3333H18.8333C18.3913 38.3333 17.9674 38.1577 17.6548 37.8451C17.3423 37.5326 17.1667 37.1087 17.1667 36.6666V35H23.8333ZM33.8333 18.3333H38.8333V21.6666H33.8333V18.3333ZM2.16667 18.3333H7.16667V21.6666H2.16667V18.3333ZM22.1667 1.66663V6.66663H18.8333V1.66663H22.1667ZM8.7 5.83329L12.25 9.39996L9.88334 11.75L6.33334 8.21663L8.7 5.83329ZM28.75 9.38329L32.2833 5.83329L34.6667 8.21663L31.1167 11.75L28.75 9.38329Z" fill="#F59225"/>
</svg>
