<svg width="112" height="32" viewBox="0 0 112 32" fill="none" xmlns="http://www.w3.org/2000/svg">
<path d="M10.7534 31.1363C6.7879 31.1363 3.66207 30.3925 0.976496 28.1894C0.834435 28.07 0.718787 27.9222 0.63694 27.7555C0.555092 27.5887 0.508843 27.4067 0.501149 27.221C0.493454 27.0353 0.524483 26.8501 0.592252 26.6771C0.660021 26.5042 0.76304 26.3472 0.894731 26.2164L2.78155 24.3254C3.01347 24.0979 3.31929 23.9616 3.64317 23.9413C3.96705 23.9211 4.2874 24.0182 4.54573 24.2151C6.30362 25.5041 8.49233 25.958 10.8351 25.958C14.2566 25.958 16.0931 24.6626 16.0931 22.2799C16.0931 21.2335 15.8006 20.3541 15.1748 19.7585C14.549 19.1628 13.9169 18.9201 12.5459 18.7121L8.97347 18.2173C6.42941 17.8422 4.55202 17.0448 3.21867 15.7494C1.79726 14.328 1.0897 12.4054 1.0897 9.8966C1.0897 4.58588 5.01115 0.863647 11.4358 0.863647C14.9295 0.863647 17.5994 1.59801 19.8919 3.35039C20.0415 3.46939 20.1639 3.61923 20.2507 3.78977C20.3376 3.9603 20.3868 4.14754 20.3952 4.33881C20.4035 4.53009 20.3708 4.72093 20.2991 4.89841C20.2275 5.07589 20.1186 5.23587 19.9799 5.36752L18.1843 7.14826C17.9585 7.36669 17.6636 7.49915 17.3506 7.52275C17.0377 7.54634 16.7263 7.45959 16.4704 7.27748C14.7912 6.11764 12.9138 5.93798 11.2471 5.93798C8.15899 5.93798 6.65897 7.65254 6.65897 9.70119C6.65002 10.0976 6.72307 10.4915 6.87353 10.8582C7.02399 11.2249 7.2486 11.5564 7.5332 11.8318C8.31382 12.4899 9.27339 12.8983 10.288 13.0042L13.7912 13.5054C16.5019 13.8804 18.2126 14.6337 19.4516 15.803C21.024 17.3095 21.7473 19.4843 21.7473 22.1065C21.7661 27.8743 16.9673 31.1363 10.7534 31.1363Z" fill="#002BA1"/>
<path d="M51.528 30.8966H48.6978C48.4114 30.8976 48.1324 30.8062 47.9018 30.636C47.6713 30.4657 47.5017 30.2255 47.4179 29.9511L43.5185 17.0667C43.4349 16.7922 43.2656 16.5518 43.0354 16.381C42.8053 16.2103 42.5265 16.1181 42.2402 16.1181C41.9538 16.1181 41.675 16.2103 41.4449 16.381C41.2147 16.5518 41.0454 16.7922 40.9618 17.0667L37.0718 29.9511C36.9876 30.2253 36.8178 30.4651 36.5874 30.6353C36.357 30.8055 36.0782 30.8971 35.7919 30.8966H32.9617C32.6674 30.8964 32.3813 30.7991 32.1477 30.6196C31.9141 30.4402 31.7459 30.1886 31.6692 29.9038L24.4678 2.8018C24.4148 2.60322 24.408 2.39505 24.4481 2.19342C24.4881 1.99179 24.574 1.80211 24.6989 1.63907C24.8239 1.47604 24.9846 1.34402 25.1687 1.25325C25.3528 1.16247 25.5552 1.11538 25.7603 1.11561H29.0182C29.3174 1.11604 29.6078 1.21682 29.8432 1.40189C30.0786 1.58696 30.2454 1.84566 30.317 2.13678L33.4617 15.018C33.5329 15.304 33.6961 15.5585 33.926 15.7423C34.1559 15.9261 34.4397 16.029 34.7337 16.0351C35.0278 16.0412 35.3156 15.9502 35.5529 15.776C35.7902 15.6019 35.9637 15.3544 36.0466 15.0716L39.792 2.0832C39.8719 1.80411 40.0404 1.55871 40.2719 1.38413C40.5034 1.20955 40.7853 1.11529 41.075 1.11561H43.4053C43.695 1.11529 43.9769 1.20955 44.2084 1.38413C44.4399 1.55871 44.6084 1.80411 44.6883 2.0832L48.4462 15.0905C48.5278 15.374 48.7004 15.6225 48.9373 15.7975C49.1742 15.9726 49.4622 16.0644 49.7564 16.0586C50.0507 16.0529 50.3349 15.9499 50.5648 15.7658C50.7947 15.5816 50.9576 15.3265 51.028 15.0401L54.2105 2.13363C54.283 1.84205 54.451 1.58327 54.6876 1.3987C54.9242 1.21414 55.2157 1.11445 55.5155 1.11561H58.7766C58.9815 1.11586 59.1835 1.16331 59.3672 1.25429C59.5508 1.34527 59.7112 1.47735 59.8358 1.64032C59.9604 1.8033 60.046 1.9928 60.0859 2.19419C60.1258 2.39558 60.1189 2.60347 60.0659 2.8018L52.8174 29.9069C52.7402 30.1906 52.5723 30.4411 52.3394 30.6199C52.1065 30.7987 51.8214 30.8959 51.528 30.8966Z" fill="#002BA1"/>
<path d="M80.1572 29.97L79.0156 26.5346C78.9277 26.2693 78.7591 26.0382 78.5335 25.8737C78.308 25.7092 78.0367 25.6196 77.7577 25.6174H69.1129C68.835 25.6185 68.5644 25.7065 68.3389 25.8693C68.1133 26.032 67.9442 26.2613 67.855 26.5251L66.6789 29.9921C66.5884 30.2548 66.4189 30.4829 66.1936 30.6449C65.9682 30.8069 65.6983 30.8949 65.421 30.8966H62.2229C62.008 30.8969 61.7962 30.8452 61.6055 30.746C61.4147 30.6467 61.2507 30.5029 61.1273 30.3266C61.0038 30.1503 60.9246 29.9468 60.8964 29.7333C60.8681 29.5198 60.8917 29.3026 60.965 29.1001L70.7985 1.99809C70.8926 1.7395 71.0638 1.51616 71.2888 1.35831C71.5138 1.20046 71.7817 1.11573 72.0564 1.1156H74.7294C75.0037 1.11549 75.2713 1.19976 75.4963 1.35702C75.7213 1.51427 75.8926 1.73694 75.9873 1.99494L85.8554 29.1001C85.9293 29.3028 85.9533 29.5203 85.9254 29.7342C85.8974 29.9481 85.8184 30.1521 85.6948 30.3288C85.5713 30.5055 85.4071 30.6497 85.216 30.7491C85.0249 30.8486 84.8128 30.9002 84.5975 30.8998H81.4276C81.1451 30.8989 80.8701 30.8085 80.6419 30.6415C80.4137 30.4745 80.244 30.2395 80.1572 29.97ZM72.2545 13.5997L70.4023 18.9578C70.3321 19.1593 70.311 19.3748 70.3408 19.5862C70.3705 19.7976 70.4503 19.9988 70.5733 20.173C70.6964 20.3472 70.8593 20.4895 71.0483 20.5878C71.2374 20.6862 71.4471 20.7379 71.6601 20.7385H75.3049C75.5164 20.7372 75.7246 20.6856 75.9123 20.5879C76.1 20.4902 76.2619 20.3493 76.3847 20.1767C76.5075 20.0041 76.5877 19.8047 76.6187 19.595C76.6496 19.3853 76.6304 19.1712 76.5627 18.9704L74.7703 13.6124C74.6785 13.3522 74.5089 13.1268 74.2846 12.9669C74.0602 12.8071 73.7921 12.7205 73.5168 12.7192C73.2415 12.7178 72.9725 12.8016 72.7466 12.9592C72.5207 13.1169 72.3488 13.3405 72.2545 13.5997Z" fill="#002BA1"/>
<path d="M101.698 19.6795H97.3173C96.963 19.6804 96.6236 19.8217 96.3731 20.0728C96.1226 20.3238 95.9816 20.664 95.9807 21.019V29.5446C95.9807 29.8998 95.8399 30.2405 95.5893 30.4917C95.3386 30.7429 94.9987 30.8841 94.6442 30.8841H91.5184C91.1639 30.8841 90.824 30.7429 90.5733 30.4917C90.3227 30.2405 90.1819 29.8998 90.1819 29.5446V2.4551C90.1819 2.09984 90.3227 1.75914 90.5733 1.50793C90.824 1.25673 91.1639 1.1156 91.5184 1.1156H101.698C107.83 1.1156 111.5 5.33897 111.5 10.3976C111.5 15.4561 107.83 19.6795 101.698 19.6795ZM101.405 6.31287H97.3173C96.9628 6.31287 96.6228 6.45399 96.3722 6.7052C96.1216 6.9564 95.9807 7.29711 95.9807 7.65237V13.127C95.9807 13.4822 96.1216 13.823 96.3722 14.0742C96.6228 14.3254 96.9628 14.4665 97.3173 14.4665H101.405C104.034 14.4665 105.701 12.837 105.701 10.4102C105.701 7.9833 104.034 6.31287 101.405 6.31287Z" fill="#002BA1"/>
</svg>
