<svg width="86" height="10" viewBox="0 0 86 10" fill="none" xmlns="http://www.w3.org/2000/svg">
<path d="M2 2C3.23024 3.20024 4.72547 4.659 6.10051 6.0005C8.38107 8.22544 12.0194 8.22493 14.3 6V6C16.5806 3.77506 20.2194 3.77507 22.5 6V6C24.7806 8.22494 28.4194 8.22494 30.7 6V6C32.9806 3.77506 36.6194 3.77507 38.9 6V6C41.1806 8.22494 44.8194 8.22493 47.1 6V6C49.3806 3.77507 53.0194 3.77507 55.3 6V6C57.5806 8.22493 61.2194 8.22493 63.5 6V6C65.7806 3.77507 69.4194 3.77507 71.7 6V6C73.9806 8.22493 77.6194 8.22494 79.9 6L84 2" stroke="#F6A128" stroke-width="4" stroke-linecap="round"/>
</svg>
