<svg width="1440" height="60" viewBox="0 0 1440 60" fill="none" xmlns="http://www.w3.org/2000/svg">
<path fill-rule="evenodd" clip-rule="evenodd" d="M0 24L21.6 25C50.4 26 93.6 28 144 31C194.4 34 237.6 38 288 34C338.4 30 381.6 18 432 20C482.4 22 525.6 38 576 44C626.4 50 669.6 46 720 44C770.4 42 813.6 42 864 37C914.4 32 957.6 22 1008 20C1058.4 18 1101.6 24 1152 27C1202.4 30 1245.6 30 1296 25C1346.4 20 1389.6 10 1418.4 5L1440 0V60H1418.4C1389.6 60 1346.4 60 1296 60C1245.6 60 1202.4 60 1152 60C1101.6 60 1058.4 60 1008 60C957.6 60 914.4 60 864 60C813.6 60 770.4 60 720 60C669.6 60 626.4 60 576 60C525.6 60 482.4 60 432 60C381.6 60 338.4 60 288 60C237.6 60 194.4 60 144 60C93.6 60 50.4 60 21.6 60H0V24Z" fill="#FEF8E3"/>
</svg>
