<svg width="88" height="40" viewBox="0 0 88 40" fill="none" xmlns="http://www.w3.org/2000/svg">
<rect width="88" height="40" fill="black"/>
<path d="M18.4924 20.6971C18.4118 20.1529 18.2909 19.6289 18.1699 19.0847C17.9482 18.1373 17.7064 17.2102 17.4242 16.3032C17.2025 15.5776 16.9808 14.8722 16.7591 14.1667C16.5978 13.6628 16.4164 13.1388 16.235 12.6349C15.7311 11.2039 15.1869 9.77282 14.6226 8.36194C14.421 8.48287 14.2195 8.6038 14.0179 8.74489C12.2644 10.0147 11.7 11.8287 11.7 13.7636C11.7 14.3078 11.7403 14.8722 11.821 15.4365C12.0024 16.7063 12.345 17.9761 12.6876 19.1048C12.8287 19.5684 12.9698 20.0521 13.1311 20.5157C13.2923 21.0196 13.4737 21.5436 13.6551 22.0475C14.5218 24.4662 15.5296 26.8445 16.5373 29.2027C17.8878 27.8321 18.6335 25.998 18.7141 24.0429C18.7746 22.9142 18.6738 21.8056 18.4924 20.6971Z" fill="#F7B52C"/>
<path d="M24.4989 12.9169C24.4787 12.3727 24.3981 11.8286 24.257 11.3045C23.8539 9.77269 22.9469 8.40212 21.6569 7.43466C19.8833 6.10439 17.5855 5.66097 15.4692 6.26564C15.3684 6.28579 15.2878 6.3261 15.187 6.34626C14.7839 6.48735 14.3808 6.64859 13.9979 6.85015C12.3249 7.73699 11.035 9.22849 10.4102 11.0223C10.0877 12.0704 10.0071 13.179 10.0877 14.2875C8.53572 14.8317 7.04421 15.5372 5.75426 16.5046C3.89996 17.8752 2.65032 19.8706 2.2069 22.0877C2.10612 22.6117 2.0255 23.1358 2.00534 23.68C2.00534 23.7001 2.00534 23.7203 2.00534 23.7404C1.90456 26.6831 3.23483 29.5654 5.59302 31.3391C8.01167 33.1531 11.1761 33.6771 14.0382 32.6693C14.7033 32.4275 15.3281 32.1251 15.9328 31.7623C16.3964 31.4801 16.8398 31.1375 17.263 30.7747C18.5328 29.646 19.5003 28.215 20.0042 26.5622C20.629 24.4862 20.4476 22.1885 20.0445 20.052C20.6492 19.7497 21.2135 19.407 21.7376 19.0039C23.4709 17.6938 24.4585 15.5976 24.5392 13.441C24.519 13.2394 24.519 13.0782 24.4989 12.9169ZM19.5003 8.03932C21.0321 8.70445 22.1608 9.97425 22.6446 11.5262C21.0321 11.7479 19.4398 12.01 17.8475 12.3123C17.4848 11.3247 17.122 10.3572 16.739 9.38974C16.5374 8.84554 16.3157 8.3215 16.094 7.7773C17.2227 7.51528 18.4119 7.55559 19.5003 8.03932ZM6.11706 18.2582C7.30623 17.2101 8.77758 16.4845 10.2892 15.9403C10.3497 16.2426 10.39 16.5651 10.4706 16.8674C10.7528 18.2178 11.1156 19.5279 11.559 20.8381C9.0396 21.3016 6.47986 21.6241 3.92011 21.9063C4.28291 20.4954 5.02866 19.2256 6.11706 18.2582ZM8.2737 31.0166C5.77442 29.9886 4.04104 27.7312 3.67825 25.0707C3.61778 24.5668 3.59762 24.0629 3.61778 23.559C6.43955 23.2366 9.28147 22.8939 12.0629 22.39C12.4257 23.3776 12.8087 24.3451 13.1916 25.3126C13.8568 26.9855 14.5622 28.6181 15.2676 30.2708C13.2118 31.5809 10.5714 31.9639 8.2737 31.0166ZM18.7344 24.0428C18.6538 25.9979 17.908 27.832 16.5576 29.2026C15.5297 26.8444 14.5421 24.466 13.6754 22.0474C13.494 21.5435 13.3126 21.0195 13.1513 20.5156C12.9901 20.052 12.849 19.5884 12.7079 19.1047C12.3653 17.9558 12.0226 16.7062 11.8412 15.4364C11.7606 14.872 11.7203 14.3278 11.7203 13.7635C11.7203 11.8286 12.2846 10.0347 14.0382 8.74476C14.2196 8.60367 14.4211 8.48274 14.6428 8.36181C15.2072 9.77269 15.7514 11.2037 16.2553 12.6348C16.4367 13.1387 16.6181 13.6627 16.7793 14.1666C17.0212 14.872 17.2429 15.5976 17.4444 16.3031C17.7065 17.2101 17.9685 18.1372 18.1902 19.0845C18.3111 19.6086 18.4119 20.1528 18.5127 20.697C18.6739 21.8055 18.7747 22.9141 18.7344 24.0428ZM21.012 17.4721C20.6089 17.8349 20.1654 18.1372 19.6817 18.3992C19.3189 16.8674 18.8755 15.3558 18.3716 13.8441C19.8631 13.5619 21.3748 13.3201 22.8864 13.1185C22.9066 14.7511 22.2414 16.3837 21.012 17.4721Z" fill="white"/>
<path d="M33.9519 29.3236C31.8961 29.3236 30.2836 28.9406 28.8929 27.8119C28.5704 27.5499 28.5704 27.0863 28.8526 26.8041L29.82 25.8367C30.0619 25.5948 30.4449 25.5747 30.727 25.7762C31.634 26.4413 32.7627 26.6832 33.9721 26.6832C35.7458 26.6832 36.6931 26.0181 36.6931 24.7886C36.6931 24.2444 36.552 23.801 36.2093 23.4986C35.907 23.2165 35.5644 23.0754 34.8589 22.9544L33.0046 22.6924C31.6945 22.4909 30.727 22.0878 30.0216 21.4226C29.296 20.697 28.913 19.6893 28.913 18.3993C28.913 15.6582 30.9488 13.7434 34.2543 13.7434C36.0682 13.7434 37.4388 14.1263 38.628 15.0333C38.9505 15.2752 38.9706 15.7791 38.6885 16.0613L37.7613 16.9884C37.5194 17.2303 37.1566 17.2504 36.8745 17.0489C36.0078 16.4442 35.0403 16.3636 34.1736 16.3636C32.5813 16.3636 31.7953 17.2504 31.7953 18.2985C31.7953 18.6815 31.9162 19.1048 32.2387 19.4071C32.541 19.6893 33.0449 19.9311 33.6697 20.0117L35.4837 20.2738C36.8946 20.4753 37.7613 20.8583 38.4063 21.4629C39.2327 22.249 39.5955 23.3576 39.5955 24.7281C39.6358 27.6305 37.1566 29.3236 33.9519 29.3236Z" fill="white"/>
<path d="M55.0141 29.1825H53.563C53.2606 29.1825 52.9986 28.9809 52.8978 28.6987L50.8823 22.0474C50.6807 21.4025 49.7536 21.4025 49.552 22.0474L47.5365 28.6987C47.4558 28.9809 47.1737 29.1825 46.8713 29.1825H45.4201C45.0977 29.1825 44.8356 28.9809 44.755 28.6786L41.0262 14.7108C40.9053 14.2674 41.248 13.8441 41.6914 13.8441H43.3844C43.7069 13.8441 43.9891 14.0659 44.0496 14.3682L45.6822 21.0195C45.8434 21.7048 46.8109 21.7249 47.0124 21.0397L48.9473 14.348C49.028 14.0457 49.3101 13.8441 49.6125 13.8441H50.8218C51.1241 13.8441 51.4063 14.0457 51.4869 14.348L53.4219 21.0598C53.6234 21.7451 54.5909 21.7249 54.7521 21.0397L56.4049 14.3883C56.4855 14.086 56.7677 13.8643 57.07 13.8643H58.7631C59.2266 13.8643 59.5491 14.2876 59.4282 14.731L55.6793 28.6987C55.5987 28.9809 55.3366 29.1825 55.0141 29.1825Z" fill="white"/>
<path d="M69.8082 28.7189L69.2237 26.9452C69.1229 26.663 68.8609 26.4816 68.5586 26.4816H64.1042C63.8019 26.4816 63.5399 26.663 63.4592 26.9452L62.8546 28.7189C62.7538 29.001 62.4918 29.1824 62.2096 29.1824H60.5367C60.053 29.1824 59.7305 28.6987 59.8917 28.2553L64.9709 14.2875C65.0717 14.0054 65.3337 13.824 65.6159 13.824H67.0066C67.2888 13.824 67.5508 14.0054 67.6516 14.2875L72.7509 28.2553C72.9122 28.6987 72.5897 29.1824 72.1059 29.1824H70.4733C70.171 29.1824 69.909 29.001 69.8082 28.7189ZM65.7368 20.2737L64.7693 23.035C64.6081 23.4784 64.9507 23.9622 65.4143 23.9622H67.2888C67.7523 23.9622 68.095 23.4986 67.9539 23.0552L67.0268 20.2939C66.8252 19.6691 65.9384 19.6489 65.7368 20.2737Z" fill="white"/>
<path d="M80.9543 23.418H78.6767C78.2938 23.418 77.9914 23.7203 77.9914 24.1033V28.4972C77.9914 28.8801 77.6891 29.1825 77.3062 29.1825H75.6937C75.3108 29.1825 75.0084 28.8801 75.0084 28.4972V14.5294C75.0084 14.1465 75.3108 13.8441 75.6937 13.8441H80.9543C84.1187 13.8441 86.0133 16.0209 86.0133 18.621C86.0133 21.2412 84.1187 23.418 80.9543 23.418ZM80.793 16.5047H78.6767C78.2938 16.5047 77.9914 16.807 77.9914 17.19V20.0117C77.9914 20.3947 78.2938 20.697 78.6767 20.697H80.793C82.1435 20.697 83.0102 19.8505 83.0102 18.6008C83.0102 17.3714 82.1435 16.5047 80.793 16.5047Z" fill="white"/>
</svg>
