<svg width="226" height="208" viewBox="0 0 226 208" fill="none" xmlns="http://www.w3.org/2000/svg">
<mask id="mask0" mask-type="alpha" maskUnits="userSpaceOnUse" x="7" y="-5" width="219" height="219">
<circle cx="116.5" cy="104.5" r="109.5" fill="url(#paint0_radial)"/>
</mask>
<g mask="url(#mask0)">
<ellipse cx="21.3783" cy="3.05882" rx="3.05405" ry="3.05882" fill="#97A3E1"/>
<ellipse cx="21.3783" cy="21.4117" rx="3.05405" ry="3.05882" fill="#97A3E1"/>
<ellipse cx="21.3783" cy="39.7646" rx="3.05405" ry="3.05882" fill="#97A3E1"/>
<ellipse cx="21.3783" cy="58.1177" rx="3.05405" ry="3.05882" fill="#97A3E1"/>
<ellipse cx="21.3783" cy="76.4706" rx="3.05405" ry="3.05882" fill="#97A3E1"/>
<ellipse cx="21.3783" cy="94.8235" rx="3.05405" ry="3.05882" fill="#97A3E1"/>
<ellipse cx="21.3783" cy="113.176" rx="3.05405" ry="3.05882" fill="#97A3E1"/>
<ellipse cx="21.3783" cy="131.529" rx="3.05405" ry="3.05882" fill="#97A3E1"/>
<ellipse cx="21.3783" cy="149.882" rx="3.05405" ry="3.05882" fill="#97A3E1"/>
<ellipse cx="21.3783" cy="168.235" rx="3.05405" ry="3.05882" fill="#97A3E1"/>
<ellipse cx="21.3783" cy="186.588" rx="3.05405" ry="3.05883" fill="#97A3E1"/>
<ellipse cx="21.3783" cy="204.941" rx="3.05405" ry="3.05882" fill="#97A3E1"/>
<ellipse cx="39.7025" cy="3.05882" rx="3.05405" ry="3.05882" fill="#97A3E1"/>
<ellipse cx="39.7025" cy="21.4117" rx="3.05405" ry="3.05882" fill="#97A3E1"/>
<ellipse cx="39.7025" cy="39.7646" rx="3.05405" ry="3.05882" fill="#97A3E1"/>
<ellipse cx="39.7025" cy="58.1177" rx="3.05405" ry="3.05882" fill="#97A3E1"/>
<ellipse cx="39.7025" cy="76.4706" rx="3.05405" ry="3.05882" fill="#97A3E1"/>
<ellipse cx="39.7025" cy="94.8235" rx="3.05405" ry="3.05882" fill="#97A3E1"/>
<ellipse cx="39.7025" cy="113.176" rx="3.05405" ry="3.05882" fill="#97A3E1"/>
<ellipse cx="39.7025" cy="131.529" rx="3.05405" ry="3.05882" fill="#97A3E1"/>
<ellipse cx="39.7025" cy="149.882" rx="3.05405" ry="3.05882" fill="#97A3E1"/>
<ellipse cx="39.7025" cy="168.235" rx="3.05405" ry="3.05882" fill="#97A3E1"/>
<ellipse cx="39.7025" cy="186.588" rx="3.05405" ry="3.05883" fill="#97A3E1"/>
<ellipse cx="39.7025" cy="204.941" rx="3.05405" ry="3.05882" fill="#97A3E1"/>
<ellipse cx="58.0272" cy="3.05882" rx="3.05405" ry="3.05882" fill="#97A3E1"/>
<ellipse cx="58.0272" cy="21.4117" rx="3.05405" ry="3.05882" fill="#97A3E1"/>
<ellipse cx="58.0272" cy="39.7646" rx="3.05405" ry="3.05882" fill="#97A3E1"/>
<ellipse cx="58.0272" cy="58.1177" rx="3.05405" ry="3.05882" fill="#97A3E1"/>
<ellipse cx="58.0272" cy="76.4706" rx="3.05405" ry="3.05882" fill="#97A3E1"/>
<ellipse cx="58.0272" cy="94.8235" rx="3.05405" ry="3.05882" fill="#97A3E1"/>
<ellipse cx="58.0272" cy="113.176" rx="3.05405" ry="3.05882" fill="#97A3E1"/>
<ellipse cx="58.0272" cy="131.529" rx="3.05405" ry="3.05882" fill="#97A3E1"/>
<ellipse cx="58.0272" cy="149.882" rx="3.05405" ry="3.05882" fill="#97A3E1"/>
<ellipse cx="58.0272" cy="168.235" rx="3.05405" ry="3.05882" fill="#97A3E1"/>
<ellipse cx="58.0272" cy="186.588" rx="3.05405" ry="3.05883" fill="#97A3E1"/>
<ellipse cx="58.0272" cy="204.941" rx="3.05405" ry="3.05882" fill="#97A3E1"/>
<ellipse cx="76.3514" cy="3.05882" rx="3.05406" ry="3.05882" fill="#97A3E1"/>
<ellipse cx="76.3514" cy="21.4117" rx="3.05406" ry="3.05882" fill="#97A3E1"/>
<ellipse cx="76.3514" cy="39.7646" rx="3.05406" ry="3.05882" fill="#97A3E1"/>
<ellipse cx="76.3514" cy="58.1177" rx="3.05406" ry="3.05882" fill="#97A3E1"/>
<ellipse cx="76.3514" cy="76.4706" rx="3.05406" ry="3.05882" fill="#97A3E1"/>
<ellipse cx="76.3514" cy="94.8235" rx="3.05406" ry="3.05882" fill="#97A3E1"/>
<ellipse cx="76.3514" cy="113.176" rx="3.05406" ry="3.05882" fill="#97A3E1"/>
<ellipse cx="76.3514" cy="131.529" rx="3.05406" ry="3.05882" fill="#97A3E1"/>
<ellipse cx="76.3514" cy="149.882" rx="3.05406" ry="3.05882" fill="#97A3E1"/>
<ellipse cx="76.3514" cy="168.235" rx="3.05406" ry="3.05882" fill="#97A3E1"/>
<ellipse cx="76.3514" cy="186.588" rx="3.05406" ry="3.05883" fill="#97A3E1"/>
<ellipse cx="76.3514" cy="204.941" rx="3.05406" ry="3.05882" fill="#97A3E1"/>
<ellipse cx="94.6756" cy="3.05882" rx="3.05405" ry="3.05882" fill="#97A3E1"/>
<ellipse cx="94.6756" cy="21.4117" rx="3.05405" ry="3.05882" fill="#97A3E1"/>
<ellipse cx="94.6756" cy="39.7646" rx="3.05405" ry="3.05882" fill="#97A3E1"/>
<ellipse cx="94.6756" cy="58.1177" rx="3.05405" ry="3.05882" fill="#97A3E1"/>
<ellipse cx="94.6756" cy="76.4706" rx="3.05405" ry="3.05882" fill="#97A3E1"/>
<ellipse cx="94.6756" cy="94.8235" rx="3.05405" ry="3.05882" fill="#97A3E1"/>
<ellipse cx="94.6756" cy="113.176" rx="3.05405" ry="3.05882" fill="#97A3E1"/>
<ellipse cx="94.6756" cy="131.529" rx="3.05405" ry="3.05882" fill="#97A3E1"/>
<ellipse cx="94.6756" cy="149.882" rx="3.05405" ry="3.05882" fill="#97A3E1"/>
<ellipse cx="94.6756" cy="168.235" rx="3.05405" ry="3.05882" fill="#97A3E1"/>
<ellipse cx="94.6756" cy="186.588" rx="3.05405" ry="3.05883" fill="#97A3E1"/>
<ellipse cx="94.6756" cy="204.941" rx="3.05405" ry="3.05882" fill="#97A3E1"/>
<ellipse cx="113" cy="3.05882" rx="3.05405" ry="3.05882" fill="#97A3E1"/>
<ellipse cx="113" cy="21.4117" rx="3.05405" ry="3.05882" fill="#97A3E1"/>
<ellipse cx="113" cy="39.7646" rx="3.05405" ry="3.05882" fill="#97A3E1"/>
<ellipse cx="113" cy="58.1177" rx="3.05405" ry="3.05882" fill="#97A3E1"/>
<ellipse cx="113" cy="76.4706" rx="3.05405" ry="3.05882" fill="#97A3E1"/>
<ellipse cx="113" cy="94.8235" rx="3.05405" ry="3.05882" fill="#97A3E1"/>
<ellipse cx="113" cy="113.176" rx="3.05405" ry="3.05882" fill="#97A3E1"/>
<ellipse cx="113" cy="131.529" rx="3.05405" ry="3.05882" fill="#97A3E1"/>
<ellipse cx="113" cy="149.882" rx="3.05405" ry="3.05882" fill="#97A3E1"/>
<ellipse cx="113" cy="168.235" rx="3.05405" ry="3.05882" fill="#97A3E1"/>
<ellipse cx="113" cy="186.588" rx="3.05405" ry="3.05883" fill="#97A3E1"/>
<ellipse cx="113" cy="204.941" rx="3.05405" ry="3.05882" fill="#97A3E1"/>
<ellipse cx="131.324" cy="3.05882" rx="3.05405" ry="3.05882" fill="#97A3E1"/>
<ellipse cx="149.649" cy="3.05882" rx="3.05405" ry="3.05882" fill="#97A3E1"/>
<ellipse cx="167.973" cy="3.05882" rx="3.05405" ry="3.05882" fill="#97A3E1"/>
<ellipse cx="186.297" cy="3.05882" rx="3.05404" ry="3.05882" fill="#97A3E1"/>
<ellipse cx="204.621" cy="3.05882" rx="3.05405" ry="3.05882" fill="#97A3E1"/>
<ellipse cx="222.946" cy="3.05882" rx="3.05405" ry="3.05882" fill="#97A3E1"/>
<ellipse cx="131.324" cy="21.4117" rx="3.05405" ry="3.05882" fill="#97A3E1"/>
<ellipse cx="149.649" cy="21.4117" rx="3.05405" ry="3.05882" fill="#97A3E1"/>
<ellipse cx="167.973" cy="21.4117" rx="3.05405" ry="3.05882" fill="#97A3E1"/>
<ellipse cx="186.297" cy="21.4117" rx="3.05404" ry="3.05882" fill="#97A3E1"/>
<ellipse cx="204.621" cy="21.4117" rx="3.05405" ry="3.05882" fill="#97A3E1"/>
<ellipse cx="222.946" cy="21.4117" rx="3.05405" ry="3.05882" fill="#97A3E1"/>
<ellipse cx="131.324" cy="39.7646" rx="3.05405" ry="3.05882" fill="#97A3E1"/>
<ellipse cx="149.649" cy="39.7646" rx="3.05405" ry="3.05882" fill="#97A3E1"/>
<ellipse cx="167.973" cy="39.7646" rx="3.05405" ry="3.05882" fill="#97A3E1"/>
<ellipse cx="186.297" cy="39.7646" rx="3.05404" ry="3.05882" fill="#97A3E1"/>
<ellipse cx="204.621" cy="39.7646" rx="3.05405" ry="3.05882" fill="#97A3E1"/>
<ellipse cx="222.946" cy="39.7646" rx="3.05405" ry="3.05882" fill="#97A3E1"/>
<ellipse cx="131.324" cy="58.1177" rx="3.05405" ry="3.05882" fill="#97A3E1"/>
<ellipse cx="149.649" cy="58.1177" rx="3.05405" ry="3.05882" fill="#97A3E1"/>
<ellipse cx="167.973" cy="58.1177" rx="3.05405" ry="3.05882" fill="#97A3E1"/>
<ellipse cx="186.297" cy="58.1177" rx="3.05404" ry="3.05882" fill="#97A3E1"/>
<ellipse cx="204.621" cy="58.1177" rx="3.05405" ry="3.05882" fill="#97A3E1"/>
<ellipse cx="222.946" cy="58.1177" rx="3.05405" ry="3.05882" fill="#97A3E1"/>
<ellipse cx="131.324" cy="76.4706" rx="3.05405" ry="3.05882" fill="#97A3E1"/>
<ellipse cx="149.649" cy="76.4706" rx="3.05405" ry="3.05882" fill="#97A3E1"/>
<ellipse cx="167.973" cy="76.4706" rx="3.05405" ry="3.05882" fill="#97A3E1"/>
<ellipse cx="186.297" cy="76.4706" rx="3.05404" ry="3.05882" fill="#97A3E1"/>
<ellipse cx="204.621" cy="76.4706" rx="3.05405" ry="3.05882" fill="#97A3E1"/>
<ellipse cx="222.946" cy="76.4706" rx="3.05405" ry="3.05882" fill="#97A3E1"/>
<ellipse cx="131.324" cy="94.8235" rx="3.05405" ry="3.05882" fill="#97A3E1"/>
<ellipse cx="149.649" cy="94.8235" rx="3.05405" ry="3.05882" fill="#97A3E1"/>
<ellipse cx="167.973" cy="94.8235" rx="3.05405" ry="3.05882" fill="#97A3E1"/>
<ellipse cx="186.297" cy="94.8235" rx="3.05404" ry="3.05882" fill="#97A3E1"/>
<ellipse cx="204.621" cy="94.8235" rx="3.05405" ry="3.05882" fill="#97A3E1"/>
<ellipse cx="222.946" cy="94.8235" rx="3.05405" ry="3.05882" fill="#97A3E1"/>
<ellipse cx="131.324" cy="113.176" rx="3.05405" ry="3.05882" fill="#97A3E1"/>
<ellipse cx="149.649" cy="113.176" rx="3.05405" ry="3.05882" fill="#97A3E1"/>
<ellipse cx="167.973" cy="113.176" rx="3.05405" ry="3.05882" fill="#97A3E1"/>
<ellipse cx="186.297" cy="113.176" rx="3.05404" ry="3.05882" fill="#97A3E1"/>
<ellipse cx="204.621" cy="113.176" rx="3.05405" ry="3.05882" fill="#97A3E1"/>
<ellipse cx="222.946" cy="113.176" rx="3.05405" ry="3.05882" fill="#97A3E1"/>
<ellipse cx="131.324" cy="131.529" rx="3.05405" ry="3.05882" fill="#97A3E1"/>
<ellipse cx="149.649" cy="131.529" rx="3.05405" ry="3.05882" fill="#97A3E1"/>
<ellipse cx="167.973" cy="131.529" rx="3.05405" ry="3.05882" fill="#97A3E1"/>
<ellipse cx="186.297" cy="131.529" rx="3.05404" ry="3.05882" fill="#97A3E1"/>
<ellipse cx="204.621" cy="131.529" rx="3.05405" ry="3.05882" fill="#97A3E1"/>
<ellipse cx="222.946" cy="131.529" rx="3.05405" ry="3.05882" fill="#97A3E1"/>
<ellipse cx="131.324" cy="149.882" rx="3.05405" ry="3.05882" fill="#97A3E1"/>
<ellipse cx="149.649" cy="149.882" rx="3.05405" ry="3.05882" fill="#97A3E1"/>
<ellipse cx="167.973" cy="149.882" rx="3.05405" ry="3.05882" fill="#97A3E1"/>
<ellipse cx="186.297" cy="149.882" rx="3.05404" ry="3.05882" fill="#97A3E1"/>
<ellipse cx="204.621" cy="149.882" rx="3.05405" ry="3.05882" fill="#97A3E1"/>
<ellipse cx="222.946" cy="149.882" rx="3.05405" ry="3.05882" fill="#97A3E1"/>
<ellipse cx="131.324" cy="168.235" rx="3.05405" ry="3.05882" fill="#97A3E1"/>
<ellipse cx="149.649" cy="168.235" rx="3.05405" ry="3.05882" fill="#97A3E1"/>
<ellipse cx="167.973" cy="168.235" rx="3.05405" ry="3.05882" fill="#97A3E1"/>
<ellipse cx="186.297" cy="168.235" rx="3.05404" ry="3.05882" fill="#97A3E1"/>
<ellipse cx="204.621" cy="168.235" rx="3.05405" ry="3.05882" fill="#97A3E1"/>
<ellipse cx="222.946" cy="168.235" rx="3.05405" ry="3.05882" fill="#97A3E1"/>
<ellipse cx="131.324" cy="186.588" rx="3.05405" ry="3.05883" fill="#97A3E1"/>
<ellipse cx="149.649" cy="186.588" rx="3.05405" ry="3.05883" fill="#97A3E1"/>
<ellipse cx="167.973" cy="186.588" rx="3.05405" ry="3.05883" fill="#97A3E1"/>
<ellipse cx="186.297" cy="186.588" rx="3.05404" ry="3.05883" fill="#97A3E1"/>
<ellipse cx="204.621" cy="186.588" rx="3.05405" ry="3.05883" fill="#97A3E1"/>
<ellipse cx="222.946" cy="186.588" rx="3.05405" ry="3.05883" fill="#97A3E1"/>
<ellipse cx="131.324" cy="204.941" rx="3.05405" ry="3.05882" fill="#97A3E1"/>
<ellipse cx="149.649" cy="204.941" rx="3.05405" ry="3.05882" fill="#97A3E1"/>
<ellipse cx="167.973" cy="204.941" rx="3.05405" ry="3.05882" fill="#97A3E1"/>
<ellipse cx="186.297" cy="204.941" rx="3.05404" ry="3.05882" fill="#97A3E1"/>
<ellipse cx="204.621" cy="204.941" rx="3.05405" ry="3.05882" fill="#97A3E1"/>
<ellipse cx="222.946" cy="204.941" rx="3.05405" ry="3.05882" fill="#97A3E1"/>
</g>
<defs>
<radialGradient id="paint0_radial" cx="0" cy="0" r="1" gradientUnits="userSpaceOnUse" gradientTransform="translate(117 104) rotate(90.2604) scale(110.001)">
<stop stop-color="#C4C4C4"/>
<stop offset="0.848958" stop-color="#C4C4C4"/>
<stop offset="1" stop-color="#C4C4C4" stop-opacity="0.4"/>
</radialGradient>
</defs>
</svg>
