<svg width="80" height="80" viewBox="0 0 80 80" fill="none" xmlns="http://www.w3.org/2000/svg">
<rect x="-1.52588e-05" width="80" height="80" rx="24" fill="#FEF8E3"/>
<path fill-rule="evenodd" clip-rule="evenodd" d="M22.1098 38H30.1002C30.5486 32.4736 32.3982 27.1688 35.4514 22.5797C28.3376 24.4319 22.936 30.5265 22.1098 38ZM40 23.1016C36.6606 27.4039 34.6176 32.5737 34.1152 38H45.8848C45.3824 32.5737 43.3393 27.4039 40 23.1016ZM45.8848 42C45.3824 47.4263 43.3393 52.5961 40 56.8984C36.6606 52.5961 34.6176 47.4263 34.1152 42H45.8848ZM30.1002 42H22.1098C22.936 49.4735 28.3376 55.5681 35.4514 57.4203C32.3982 52.8312 30.5486 47.5264 30.1002 42ZM44.5486 57.4203C47.6018 52.8312 49.4514 47.5264 49.8998 42H57.8901C57.064 49.4735 51.6624 55.5681 44.5486 57.4203ZM57.8901 38H49.8998C49.4514 32.4736 47.6018 27.1688 44.5486 22.5797C51.6624 24.4319 57.064 30.5265 57.8901 38ZM18 40C18 27.8497 27.8497 18 40 18C52.1502 18 62 27.8497 62 40C62 52.1503 52.1502 62 40 62C27.8497 62 18 52.1503 18 40Z" fill="#E5640C"/>
</svg>
