<svg width="81" height="80" viewBox="0 0 81 80" fill="none" xmlns="http://www.w3.org/2000/svg">
<rect x="0.333313" width="80" height="80" rx="24" fill="#E6E9F8"/>
<path fill-rule="evenodd" clip-rule="evenodd" d="M24.0907 19.7574C25.2159 18.6321 26.742 18 28.3333 18H44.3333C44.8637 18 45.3725 18.2107 45.7475 18.5858L57.7475 30.5858C58.1226 30.9609 58.3333 31.4696 58.3333 32V56C58.3333 57.5913 57.7012 59.1174 56.576 60.2426C55.4507 61.3679 53.9246 62 52.3333 62H28.3333C26.742 62 25.2159 61.3679 24.0907 60.2426C22.9655 59.1174 22.3333 57.5913 22.3333 56V24C22.3333 22.4087 22.9655 20.8826 24.0907 19.7574ZM28.3333 22C27.8029 22 27.2942 22.2107 26.9191 22.5858C26.544 22.9609 26.3333 23.4696 26.3333 24V56C26.3333 56.5304 26.544 57.0391 26.9191 57.4142C27.2942 57.7893 27.8029 58 28.3333 58H52.3333C52.8637 58 53.3725 57.7893 53.7475 57.4142C54.1226 57.0391 54.3333 56.5304 54.3333 56V32.8284L43.5049 22H28.3333Z" fill="#002BA1"/>
<path fill-rule="evenodd" clip-rule="evenodd" d="M44.3333 18C45.4379 18 46.3333 18.8954 46.3333 20V30H56.3333C57.4379 30 58.3333 30.8954 58.3333 32C58.3333 33.1046 57.4379 34 56.3333 34H44.3333C43.2287 34 42.3333 33.1046 42.3333 32V20C42.3333 18.8954 43.2287 18 44.3333 18Z" fill="#002BA1"/>
<path fill-rule="evenodd" clip-rule="evenodd" d="M30.3333 42C30.3333 40.8954 31.2287 40 32.3333 40H48.3333C49.4379 40 50.3333 40.8954 50.3333 42C50.3333 43.1046 49.4379 44 48.3333 44H32.3333C31.2287 44 30.3333 43.1046 30.3333 42Z" fill="#002BA1"/>
<path fill-rule="evenodd" clip-rule="evenodd" d="M30.3333 50C30.3333 48.8954 31.2287 48 32.3333 48H48.3333C49.4379 48 50.3333 48.8954 50.3333 50C50.3333 51.1046 49.4379 52 48.3333 52H32.3333C31.2287 52 30.3333 51.1046 30.3333 50Z" fill="#002BA1"/>
<path fill-rule="evenodd" clip-rule="evenodd" d="M30.3333 34C30.3333 32.8954 31.2287 32 32.3333 32H36.3333C37.4379 32 38.3333 32.8954 38.3333 34C38.3333 35.1046 37.4379 36 36.3333 36H32.3333C31.2287 36 30.3333 35.1046 30.3333 34Z" fill="#002BA1"/>
</svg>
