<svg width="81" height="80" viewBox="0 0 81 80" fill="none" xmlns="http://www.w3.org/2000/svg">
<rect x="0.666626" width="80" height="80" rx="20" fill="#E6F6E8"/>
<path fill-rule="evenodd" clip-rule="evenodd" d="M40.6666 26C41.7712 26 42.6666 26.8954 42.6666 28V30H45.6666C46.7712 30 47.6666 30.8954 47.6666 32C47.6666 33.1046 46.7712 34 45.6666 34H42.6666V37H43.1666C44.6253 37 46.0243 37.5795 47.0557 38.6109C48.0872 39.6424 48.6666 41.0413 48.6666 42.5C48.6666 43.9587 48.0872 45.3576 47.0557 46.3891C46.0243 47.4205 44.6253 48 43.1666 48H42.6666V50C42.6666 51.1046 41.7712 52 40.6666 52C39.5621 52 38.6666 51.1046 38.6666 50V48H34.6666C33.5621 48 32.6666 47.1046 32.6666 46C32.6666 44.8954 33.5621 44 34.6666 44H38.6666V41H38.1666C36.7079 41 35.309 40.4205 34.2775 39.3891C33.2461 38.3576 32.6666 36.9587 32.6666 35.5C32.6666 34.0413 33.2461 32.6424 34.2775 31.6109C35.309 30.5795 36.7079 30 38.1666 30H38.6666V28C38.6666 26.8954 39.5621 26 40.6666 26ZM38.6666 34H38.1666C37.7688 34 37.3873 34.158 37.106 34.4393C36.8247 34.7206 36.6666 35.1022 36.6666 35.5C36.6666 35.8978 36.8247 36.2794 37.106 36.5607C37.3873 36.842 37.7688 37 38.1666 37H38.6666V34ZM42.6666 44H43.1666C43.5645 44 43.946 43.842 44.2273 43.5607C44.5086 43.2794 44.6666 42.8978 44.6666 42.5C44.6666 42.1022 44.5086 41.7206 44.2273 41.4393C43.946 41.158 43.5645 41 43.1666 41H42.6666V44Z" fill="#00821E"/>
<path fill-rule="evenodd" clip-rule="evenodd" d="M39.9644 18.1273C40.4171 17.9576 40.9161 17.9576 41.3689 18.1273L57.3689 24.1273C58.1495 24.4201 58.6666 25.1663 58.6666 26V40C58.6666 46.8929 54.1031 52.4006 49.9836 56.0052C47.8819 57.8442 45.7895 59.2817 44.2266 60.2585C43.4431 60.7482 42.7873 61.1255 42.3228 61.3826C42.0904 61.5112 41.9055 61.61 41.776 61.678C41.7112 61.712 41.6603 61.7383 41.6241 61.7568L41.5811 61.7787L41.5682 61.7853L41.5639 61.7874C41.5639 61.7874 41.5611 61.7889 40.6666 60L39.771 61.7882L39.7651 61.7853L39.7521 61.7787L39.7091 61.7568C39.673 61.7383 39.622 61.712 39.5573 61.678C39.4278 61.61 39.2429 61.5112 39.0105 61.3826C38.546 61.1255 37.8902 60.7482 37.1066 60.2585C35.5437 59.2817 33.4514 57.8442 31.3496 56.0052C27.2301 52.4006 22.6666 46.8929 22.6666 40V26C22.6666 25.1663 23.1838 24.4201 23.9644 24.1273L39.9644 18.1273ZM40.6666 57.7255C41.0499 57.5083 41.54 57.2206 42.1066 56.8665C43.5437 55.9683 45.4514 54.6558 47.3496 52.9948C51.2301 49.5994 54.6666 45.1071 54.6666 40V27.386L40.6666 22.136L26.6666 27.386V40C26.6666 45.1071 30.1031 49.5994 33.9836 52.9948C35.8819 54.6558 37.7895 55.9683 39.2266 56.8665C39.7932 57.2206 40.2833 57.5083 40.6666 57.7255Z" fill="#00821E"/>
<path d="M39.771 61.7882C40.334 62.0698 40.998 62.0704 41.5611 61.7889L40.6666 60C39.7722 61.7889 39.771 61.7882 39.771 61.7882Z" fill="#00821E"/>
</svg>
