<svg width="281" height="160" viewBox="0 0 281 160" fill="none" xmlns="http://www.w3.org/2000/svg">
<path fill-rule="evenodd" clip-rule="evenodd" d="M18.2363 21.3232C26.4446 24.4098 33.9457 24.7414 40.7394 22.3181L51.8451 39.4402C35.9489 41.0758 24.0461 38.8805 16.1367 32.8543L18.2363 21.3232Z" stroke="#18233D" stroke-width="0.775425" stroke-linecap="round"/>
<path fill-rule="evenodd" clip-rule="evenodd" d="M3.07444 0L38.394 2.51871C26.5009 18.2125 21.4452 29.8966 23.227 37.571C11.9834 32.9973 5.06488 27.3997 2.4716 20.7784C-0.121689 14.157 0.0792577 7.23086 3.07444 0Z" fill="#F1F5FF"/>
<path d="M5.24268 7.40979L25.2853 9.54241" stroke="#18233D" stroke-width="0.775425" stroke-linecap="round"/>
<path d="M3.93701 13.2764L18.1056 15.409" stroke="#18233D" stroke-width="0.775425" stroke-linecap="round"/>
<path d="M36.3628 26.7874L41.9622 36.1226" stroke="#18233D" stroke-width="0.775425" stroke-linecap="round"/>
<path d="M30.4888 26.7874L33.4774 32.2116" stroke="#18233D" stroke-width="0.775425" stroke-linecap="round"/>
<path fill-rule="evenodd" clip-rule="evenodd" d="M145.718 80.6829C154.16 80.3493 161.186 80.3493 166.795 80.6829C172.404 81.0165 181.425 79.9084 193.86 77.3586L197.124 99.8006L174.333 113.738C171.124 135.372 166.488 147.632 160.426 150.516H111.999C108.323 148.018 104.784 135.967 101.381 114.362H70.5035L80.8578 91.6188C90.8429 89.5079 98.5293 87.5483 103.917 85.7401C109.305 83.9318 119.986 81.5297 135.961 78.5336L145.718 80.6829Z" fill="#18233D"/>
<path fill-rule="evenodd" clip-rule="evenodd" d="M143.93 78.8595L149.832 81.5701V93.4239L142.167 86.0825L132.489 85.3252L122.155 91.694L123.39 81.5906L130.087 78.8595H143.93Z" stroke="white" stroke-width="0.775425"/>
<path d="M135.142 83.3534H139.73V103.674H135.142V83.3534Z" stroke="white" stroke-width="0.775425"/>
<path fill-rule="evenodd" clip-rule="evenodd" d="M146.258 57.9087C145.092 62.3647 144.8 66.7975 145.383 71.2074C146.258 77.8221 146.258 80.3861 147.671 81.4434L140.276 90.8276L134.177 91.6188L126.969 81.4434C129.044 80.497 130.082 77.5118 130.082 72.4877C130.082 67.4636 129.94 61.8945 129.658 55.7802L146.258 57.9087Z" fill="#FFD1AB"/>
<path fill-rule="evenodd" clip-rule="evenodd" d="M148.469 56.823C152.109 51.1027 153.239 40.3165 145.312 37.9396C144.774 29.8073 126.735 33.3224 124.44 41.9878C122.145 50.6531 126.867 62.9222 133.511 64.3914C140.154 65.8606 144.829 62.5433 148.469 56.823Z" fill="#18233D"/>
<path d="M144.909 41.7169C150.567 43.5838 153.965 43.5838 155.101 41.7169" stroke="#18233D" stroke-width="0.775425" stroke-linecap="round"/>
<path d="M125 36.7209C126.266 42.5129 125.288 45.7061 122.065 46.3004" stroke="#18233D" stroke-width="0.775425" stroke-linecap="round"/>
<path d="M134.86 30.636C132.959 37.0238 130.869 39.7837 128.592 38.9158" stroke="#18233D" stroke-width="0.775425" stroke-linecap="round"/>
<path d="M150.146 35.8506C148.744 38.6719 146.998 40.0826 144.909 40.0826" stroke="#18233D" stroke-width="0.775425" stroke-linecap="round"/>
<path d="M144.491 38.3358C144.476 35.0979 143.527 33.1831 141.645 32.5914" stroke="#18233D" stroke-width="0.775425" stroke-linecap="round"/>
<path fill-rule="evenodd" clip-rule="evenodd" d="M129.658 60.0251C129.794 61.122 130.254 67.4713 130.112 72.7635C130.08 73.9628 129.933 75.3602 129.672 76.9556C139.143 72.4344 144.281 69.2551 145.086 67.4177C145.031 65.5087 145.139 63.6737 145.312 62.1108L129.658 60.0251Z" fill="#CF8B54"/>
<path fill-rule="evenodd" clip-rule="evenodd" d="M146.47 50.0951C144.293 48.8099 143.673 46.279 142.219 41.9878C138.461 48.0624 134.88 48.5749 128.736 50.0843C129.135 61.0824 128.044 51.1273 126.93 51.2503C126.703 51.1806 126.462 51.1432 126.214 51.1432C124.812 51.1432 123.675 52.3323 123.675 53.799C123.675 55.2658 124.812 56.4548 126.214 56.4548C126.867 56.4548 127.463 56.1963 127.913 55.7717C129.97 61.9986 134.295 69.9907 139.154 69.2428C142.666 68.7022 145.422 64.1505 147.422 55.5875C147.594 55.6262 147.773 55.6465 147.956 55.6465C149.358 55.6465 150.495 54.4575 150.495 52.9907C150.495 51.524 149.358 50.3349 147.956 50.3349C147.857 50.3349 147.879 54.6063 147.422 54.4422C147.117 54.3327 146.799 52.8837 146.47 50.0951Z" fill="#FFD1AB"/>
<path d="M140.197 40.4133C141.811 46.1421 143.711 48.9551 145.896 48.8521" stroke="#18233D" stroke-width="0.775425" stroke-linecap="round"/>
<path d="M138.587 52.2808C138.255 53.562 138.725 55.902 139.998 59.3007L137.992 60.0252" stroke="#18233D" stroke-width="0.775425" stroke-linecap="round"/>
<path d="M135.559 49.1421C134.495 50.4137 133.069 50.9109 131.281 50.6336" stroke="#18233D" stroke-width="0.775425" stroke-linecap="round"/>
<path d="M144.629 51.0737C142.99 51.0595 141.7 50.2647 140.759 48.6893" stroke="#18233D" stroke-width="0.775425" stroke-linecap="round"/>
<path d="M133.791 53.0052C133.402 53.0052 133.086 52.6835 133.086 52.2866C133.086 51.8898 133.402 51.5681 133.791 51.5681C134.181 51.5681 134.497 51.8898 134.497 52.2866C134.497 52.6835 134.181 53.0052 133.791 53.0052Z" fill="#18233D"/>
<path d="M142.261 53.0052C141.871 53.0052 141.555 52.6835 141.555 52.2866C141.555 51.8898 141.871 51.5681 142.261 51.5681C142.65 51.5681 142.966 51.8898 142.966 52.2866C142.966 52.6835 142.65 53.0052 142.261 53.0052Z" fill="#18233D"/>
<path fill-rule="evenodd" clip-rule="evenodd" d="M140.313 62.6975C139.768 62.1392 136.853 60.5578 136.308 61.6276C135.763 62.6975 136.919 63.8329 138.461 63.8329C140.002 63.8329 140.858 63.2558 140.313 62.6975Z" fill="white"/>
<path d="M126.969 54.4423L125.557 53.9633" stroke="#18233D" stroke-width="0.775425" stroke-linecap="round"/>
<path d="M147.671 53.4843L149.083 53.0052" stroke="#18233D" stroke-width="0.775425" stroke-linecap="round"/>
<path d="M139.673 40.5507C137.176 44.9629 133.255 47.6773 127.91 48.6939" stroke="white" stroke-width="0.775425" stroke-linecap="round"/>
<path fill-rule="evenodd" clip-rule="evenodd" d="M84.2138 109.452C80.5148 116.25 77.3441 118.033 68.4673 115.974C59.5904 113.914 61.0843 94.7595 65.6656 91.6355C70.2468 88.5114 77.325 83.332 83.4187 88.4948C89.5123 93.6577 87.9128 102.653 84.2138 109.452Z" fill="#85A9FF"/>
<path fill-rule="evenodd" clip-rule="evenodd" d="M206.419 97.7727C202.865 102.012 202.607 106.009 189.897 104.985C183.32 104.455 180.864 99.2982 179.967 94.188C179.131 89.422 175.005 84.9371 177.873 83.3568C183.817 80.082 192.948 74.7019 202.224 78.8109C211.501 82.9199 209.972 93.533 206.419 97.7727Z" fill="#85A9FF"/>
<path fill-rule="evenodd" clip-rule="evenodd" d="M203.719 86.0107C209.781 90.0943 203.493 102.507 191.796 99.3271C180.1 96.1473 157.868 73.7773 151.478 66.0085C145.089 58.2396 148.933 55.5368 148.378 52.5664C148.286 52.0697 147.943 49.496 147.351 44.8453C147.293 44.3886 147.533 43.9457 147.947 43.7434C148.296 43.5727 148.718 43.7173 148.889 44.0664C148.899 44.0853 148.907 44.1045 148.914 44.1242L151.395 50.6022L149.389 41.0118C149.254 40.3701 149.604 39.7254 150.215 39.4869C150.782 39.2658 151.421 39.5455 151.642 40.1116C151.647 40.1224 151.651 40.1332 151.655 40.1442L154.51 48.1883L158.113 58.6936C184.475 74.1826 199.677 83.2883 203.719 86.0107Z" fill="#FFD1AB"/>
<path fill-rule="evenodd" clip-rule="evenodd" d="M62.2222 98.4338C64.3596 105.417 68.598 113.69 75.7814 111.496C82.9648 109.303 82.8869 95.6787 76.2597 80.7114C69.6324 65.744 63.9189 51.0679 58.348 42.6949C52.7771 34.3219 49.0642 37.2033 46.3817 35.8054C45.9332 35.5717 43.5686 34.4926 39.2879 32.5681C38.8676 32.3792 38.3733 32.4783 38.0585 32.8146C37.7927 33.0986 37.8078 33.5439 38.0921 33.8092C38.1075 33.8235 38.1235 33.8372 38.1401 33.8501L43.6182 38.1128L35.0207 33.3934C34.4455 33.0776 33.7258 33.223 33.3186 33.7372C32.941 34.214 33.022 34.906 33.4993 35.2828C33.5084 35.29 33.5177 35.2971 33.527 35.304L40.3952 40.3824L30.3964 36.0885C29.9467 35.8954 29.4253 36.1029 29.2319 36.5519C29.2261 36.5652 29.2207 36.5787 29.2156 36.5923C29.0187 37.1192 29.1956 37.7126 29.649 38.0462C31.768 39.6051 34.8758 41.3806 38.9725 43.3727C40.5572 44.1433 44.0337 45.3169 49.402 46.8936C56.5238 76.5982 60.7972 93.7783 62.2222 98.4338Z" fill="#FFD1AB"/>
<path fill-rule="evenodd" clip-rule="evenodd" d="M162.427 146.605V150.185H123.71C123.876 148.18 125.557 146.605 127.607 146.605H162.427Z" fill="white" stroke="#18233D" stroke-width="0.775425"/>
<path fill-rule="evenodd" clip-rule="evenodd" d="M147.396 107.817L139.237 150.185L140.31 150.185L204.772 148.494L213.744 109.253L212.792 107.817H147.396Z" fill="white" stroke="#18233D" stroke-width="0.775425"/>
<path fill-rule="evenodd" clip-rule="evenodd" d="M148.19 108.901H214.093L206.152 150.511H140.249L148.19 108.901Z" fill="#0ACC94"/>
<path d="M177.171 132.88C178.918 132.88 180.335 131.459 180.335 129.706C180.335 127.953 178.918 126.533 177.171 126.533C175.423 126.533 174.006 127.953 174.006 129.706C174.006 131.459 175.423 132.88 177.171 132.88Z" fill="white"/>
<path d="M262.392 150.571H49.6177V159.696H262.392V150.571Z" fill="#85A9FF"/>
<path d="M280.666 150.571H111.622V159.696H280.666V150.571Z" fill="#D7E3FF"/>
<path fill-rule="evenodd" clip-rule="evenodd" d="M246.588 96.1019L242.83 95.1006C241.926 94.8597 241.352 93.9739 241.502 93.0517C241.663 92.0607 241.235 91.0659 240.404 90.5008L240.008 90.2315C239.027 89.5642 238.751 88.2411 239.383 87.238C239.534 86.9992 239.684 86.7604 239.835 86.5216C239.674 86.2602 239.513 85.9989 239.351 85.7375C238.757 84.7732 239.057 83.51 240.023 82.916C240.069 82.8879 240.116 82.8616 240.163 82.8372L240.589 82.6195C241.458 82.1745 242.524 82.4875 243.014 83.3316L243.182 83.6213C243.605 84.3502 244.443 84.7332 245.272 84.5771C245.935 84.4521 246.575 84.8881 246.7 85.5509C246.711 85.607 246.717 85.6639 246.72 85.7209L246.802 87.4965C246.849 88.512 247.711 89.2972 248.728 89.2504C248.751 89.2493 248.775 89.2477 248.799 89.2457C249.345 89.1994 249.825 89.6039 249.871 90.1492C249.889 90.3532 249.842 90.5576 249.739 90.7342L246.588 96.1019Z" fill="#0ACC94"/>
<path d="M244.904 130.772L247.395 98.0064L242.412 87.5137" stroke="#18233D" stroke-width="0.775425" stroke-linecap="round"/>
<path fill-rule="evenodd" clip-rule="evenodd" d="M245.381 106.545V103.187C245.381 102.302 244.707 101.562 243.825 101.478C242.873 101.387 242.056 100.761 241.722 99.8667L241.601 99.5446C241.225 98.5378 240.135 97.9907 239.101 98.2892C238.813 98.3723 238.526 98.4554 238.238 98.5384C238.036 98.3381 237.834 98.1378 237.631 97.9374C236.845 97.1583 235.575 97.1633 234.795 97.9486C234.788 97.9552 234.782 97.9618 234.775 97.9685L234.477 98.277C233.87 98.9059 233.888 99.9076 234.517 100.514C234.522 100.519 234.527 100.524 234.532 100.528L234.778 100.759C235.324 101.273 235.465 102.085 235.123 102.753C234.858 103.27 235.063 103.905 235.581 104.17C235.638 104.199 235.698 104.223 235.76 104.241L237.517 104.766C238.359 105.017 238.837 105.902 238.585 106.742C238.574 106.781 238.561 106.819 238.546 106.857C238.371 107.313 238.599 107.824 239.055 107.999C239.227 108.065 239.415 108.076 239.593 108.03L245.381 106.545Z" fill="#0ACC94"/>
<path d="M246.663 107.348L238.16 100.807" stroke="#18233D" stroke-width="0.775425" stroke-linecap="round"/>
<path fill-rule="evenodd" clip-rule="evenodd" d="M248.623 98.5102V95.1522C248.623 94.267 249.297 93.5268 250.179 93.4426C251.131 93.3517 251.947 92.7263 252.282 91.8317L252.403 91.5096C252.779 90.5028 253.869 89.9557 254.903 90.2542C255.191 90.3373 255.478 90.4203 255.766 90.5034C255.968 90.3031 256.17 90.1027 256.373 89.9024C257.159 89.1232 258.429 89.1283 259.209 89.9136C259.216 89.9202 259.222 89.9268 259.228 89.9335L259.526 90.2419C260.134 90.8708 260.116 91.8725 259.486 92.4793C259.482 92.4839 259.477 92.4885 259.472 92.4931L259.226 92.724C258.679 93.2376 258.539 94.0503 258.881 94.7175C259.146 95.2352 258.941 95.8697 258.423 96.1348C258.366 96.164 258.306 96.188 258.244 96.2064L256.486 96.7312C255.645 96.9824 255.167 97.8672 255.419 98.7074C255.43 98.7461 255.443 98.7843 255.458 98.822C255.633 99.2778 255.405 99.7893 254.949 99.9644C254.777 100.03 254.589 100.041 254.411 99.9954L248.623 98.5102Z" fill="#0ACC94"/>
<path d="M247.34 99.3132L255.843 92.7719" stroke="#18233D" stroke-width="0.775425" stroke-linecap="round"/>
<path fill-rule="evenodd" clip-rule="evenodd" d="M244.417 122.53V118.333C244.417 117.226 243.575 116.301 242.472 116.196C241.282 116.082 240.261 115.3 239.843 114.182L239.692 113.779C239.222 112.521 237.86 111.837 236.567 112.21C236.208 112.314 235.848 112.418 235.488 112.522C235.236 112.271 234.983 112.021 234.73 111.77C233.747 110.796 232.16 110.803 231.185 111.784C231.176 111.793 231.168 111.801 231.16 111.809L230.788 112.195C230.028 112.981 230.051 114.233 230.838 114.991C230.844 114.997 230.85 115.003 230.856 115.009L231.163 115.297C231.846 115.939 232.022 116.955 231.595 117.789C231.263 118.436 231.519 119.229 232.167 119.561C232.239 119.597 232.314 119.627 232.391 119.65L234.588 120.306C235.639 120.62 236.237 121.726 235.923 122.777C235.908 122.825 235.892 122.873 235.874 122.92C235.655 123.49 235.939 124.129 236.51 124.348C236.724 124.43 236.959 124.444 237.182 124.387L244.417 122.53Z" fill="#0ACC94"/>
<path fill-rule="evenodd" clip-rule="evenodd" d="M248.022 116.555V112.357C248.022 111.251 248.865 110.326 249.967 110.22C251.157 110.107 252.178 109.325 252.596 108.207L252.747 107.804C253.218 106.546 254.58 105.862 255.872 106.235C256.232 106.339 256.591 106.443 256.951 106.546C257.204 106.296 257.457 106.046 257.709 105.795C258.692 104.821 260.28 104.828 261.255 105.809C261.263 105.817 261.271 105.826 261.279 105.834L261.652 106.22C262.411 107.006 262.389 108.258 261.602 109.016C261.596 109.022 261.59 109.028 261.584 109.034L261.276 109.322C260.593 109.964 260.417 110.98 260.845 111.814C261.176 112.461 260.92 113.254 260.272 113.586C260.201 113.622 260.126 113.652 260.049 113.675L257.852 114.331C256.8 114.645 256.202 115.751 256.517 116.801C256.531 116.85 256.548 116.898 256.566 116.945C256.785 117.515 256.5 118.154 255.93 118.373C255.715 118.455 255.48 118.469 255.257 118.412L248.022 116.555Z" fill="#0ACC94"/>
<path d="M245.932 118.444L259.138 108.457" stroke="#18233D" stroke-width="0.775425" stroke-linecap="round"/>
<path d="M245.381 122.936L233.363 114.135" stroke="#18233D" stroke-width="0.775425" stroke-linecap="round"/>
<mask id="mask0" mask-type="alpha" maskUnits="userSpaceOnUse" x="226" y="128" width="36" height="23">
<path d="M226.494 128.165L232.812 150.209H257.568L261.669 128.165H226.494Z" fill="white"/>
</mask>
<g mask="url(#mask0)">
<path d="M226.494 128.165L232.812 150.209H257.568L261.669 128.165H226.494Z" fill="#4385FF"/>
<path d="M228.897 137.266L230.128 137.881C232.303 138.967 234.881 138.872 236.97 137.629L237.921 137.062C239.393 136.186 241.234 136.211 242.681 137.127C244.157 138.061 246.001 138.205 247.604 137.511L247.801 137.426C249.543 136.672 251.536 136.761 253.204 137.668L253.682 137.928C255.56 138.949 257.874 138.702 259.493 137.308L260.744 136.231" stroke="white" stroke-width="0.775425"/>
<path d="M228.897 139.874L230.128 140.488C232.303 141.575 234.881 141.48 236.97 140.236L237.921 139.669C239.393 138.793 241.234 138.818 242.681 139.734C244.157 140.669 246.001 140.812 247.604 140.118L247.801 140.033C249.543 139.279 251.536 139.368 253.204 140.275L253.682 140.535C255.56 141.556 257.874 141.309 259.493 139.915L260.744 138.838" stroke="white" stroke-width="0.775425"/>
</g>
<path fill-rule="evenodd" clip-rule="evenodd" d="M126.634 151.777C136.736 147.005 144.124 140.084 148.799 131.016L166.447 151.777C158.63 162.629 149.306 168.527 138.475 169.474L126.634 151.777Z" fill="#F1F5FF"/>
<path d="M148.825 138.838L157.962 150.571" stroke="#18233D" stroke-width="0.775425" stroke-linecap="round"/>
<path d="M145.562 142.749L151.191 150.169" stroke="#18233D" stroke-width="0.775425" stroke-linecap="round"/>
<path d="M142.951 146.008L150.538 155.541" stroke="#18233D" stroke-width="0.775425" stroke-linecap="round"/>
<path d="M139.035 149.267L141.276 152.293" stroke="#18233D" stroke-width="0.775425" stroke-linecap="round"/>
</svg>
