<?xml version="1.0" encoding="utf-8"?>
<!-- Generator: Adobe Illustrator 21.0.2, SVG Export Plug-In . SVG Version: 6.00 Build 0)  -->
<svg version="1.1" id="圖層_1" xmlns="http://www.w3.org/2000/svg" xmlns:xlink="http://www.w3.org/1999/xlink" x="0px" y="0px"
	 viewBox="0 0 566.9 226.8" style="enable-background:new 0 0 566.9 226.8;" xml:space="preserve">
<style type="text/css">
	.st0{fill:#4862CC;}
	.st1{fill:none;}
	.st2{fill:#F7B52C;}
	.st3{fill:#FFFFFF;}
</style>
<rect x="-24.3" y="-18.3" class="st0" width="615.5" height="263.3"/>
<g>
	<g>
		<g>
			<path class="st1" d="M126.6,126.9c-13.7,2.6-27.6,4.3-41.5,5.7c-0.1,2.5-0.1,4.9,0.3,7.4c1.8,13.2,10.4,24.2,22.6,29.2
				c11.3,4.7,24.3,2.8,34.4-3.8c-3.5-8.1-6.9-16.1-10.2-24.4C130.2,136.6,128.3,131.7,126.6,126.9z"/>
			<path class="st1" d="M118.6,100c-0.3-1.5-0.6-3-0.9-4.6c-7.4,2.8-14.7,6.2-20.5,11.4c-5.3,4.8-9,11-10.9,17.8
				c12.6-1.4,25.1-3,37.5-5.2C121.8,113,120,106.5,118.6,100z"/>
			<path class="st1" d="M164,107.5c2.4-1.3,4.6-2.8,6.5-4.6c6-5.3,9.4-13.4,9.3-21.4c-7.4,1-14.8,2.2-22.2,3.6
				C160,92.4,162.2,99.9,164,107.5z"/>
			<path class="st1" d="M163.1,56.6c-5.3-2.3-11.2-2.6-16.7-1.3c1.1,2.7,2.1,5.2,3.2,7.9c1.9,4.8,3.7,9.5,5.4,14.4
				c7.8-1.5,15.7-2.8,23.6-3.9C176.2,66.1,170.6,59.9,163.1,56.6z"/>
			<path class="st2" d="M158.1,118.8c-0.4-2.7-1-5.2-1.6-7.9c-1.1-4.7-2.3-9.2-3.7-13.7c-1.1-3.6-2.2-7-3.3-10.5
				c-0.8-2.5-1.7-5-2.6-7.5c-2.5-7-5.1-14.1-7.9-21c-1,0.6-2,1.2-3,1.9c-8.6,6.2-11.4,15.1-11.4,24.7c0,2.7,0.2,5.4,0.6,8.2
				c0.9,6.2,2.6,12.5,4.3,18c0.7,2.3,1.4,4.7,2.2,6.9c0.8,2.5,1.7,5,2.6,7.5c4.3,11.9,9.2,23.6,14.2,35.1
				c6.6-6.7,10.3-15.7,10.7-25.3C159.5,129.7,159,124.2,158.1,118.8z"/>
			<path class="st3" d="M187.6,80.6c-0.1-2.7-0.5-5.3-1.2-7.9c-2-7.5-6.4-14.3-12.8-19c-8.7-6.5-20-8.7-30.4-5.7
				c-0.5,0.1-0.9,0.3-1.4,0.4c-2,0.7-4,1.5-5.8,2.5c-8.2,4.4-14.6,11.7-17.6,20.5c-1.6,5.1-2,10.6-1.6,16
				c-7.6,2.7-14.9,6.1-21.3,10.9c-9.1,6.7-15.2,16.5-17.4,27.4c-0.5,2.6-0.9,5.1-1,7.8c0,0.1,0,0.2,0,0.3
				c-0.5,14.5,6,28.6,17.6,37.3c11.9,8.9,27.4,11.5,41.5,6.5c3.3-1.2,6.3-2.7,9.3-4.5c2.3-1.4,4.5-3.1,6.5-4.9
				c6.2-5.5,11-12.6,13.5-20.7c3.1-10.2,2.2-21.5,0.2-32c3-1.5,5.7-3.2,8.3-5.1c8.5-6.4,13.4-16.7,13.8-27.3
				C187.7,82.1,187.7,81.3,187.6,80.6z M163.1,56.6c7.5,3.3,13.1,9.5,15.4,17.1c-7.9,1.1-15.7,2.4-23.6,3.9
				c-1.8-4.9-3.6-9.6-5.4-14.4c-1-2.7-2.1-5.2-3.2-7.9C151.9,54,157.7,54.2,163.1,56.6z M97.4,106.8c5.8-5.1,13.1-8.7,20.5-11.4
				c0.3,1.5,0.5,3.1,0.9,4.6c1.4,6.6,3.2,13.1,5.3,19.5c-12.4,2.3-24.9,3.9-37.5,5.2C88.3,117.8,92,111.5,97.4,106.8z M108,169.5
				c-12.3-5-20.8-16.1-22.6-29.2c-0.3-2.5-0.4-5-0.3-7.4c13.9-1.6,27.8-3.3,41.5-5.7c1.8,4.9,3.7,9.6,5.5,14.4
				c3.3,8.2,6.7,16.2,10.2,24.4C132.2,172.2,119.2,174.1,108,169.5z M159.3,135.2c-0.4,9.6-4.1,18.6-10.7,25.3
				c-5-11.6-9.9-23.3-14.2-35.1c-0.9-2.5-1.8-5-2.6-7.5c-0.8-2.3-1.5-4.6-2.2-6.9c-1.7-5.6-3.4-11.8-4.3-18
				c-0.4-2.8-0.6-5.4-0.6-8.2c0-9.5,2.8-18.3,11.4-24.7c0.9-0.7,1.9-1.3,3-1.9c2.8,6.9,5.4,14,7.9,21c0.9,2.5,1.8,5,2.6,7.5
				c1.2,3.5,2.3,7,3.3,10.5c1.3,4.5,2.6,9,3.7,13.7c0.6,2.6,1.1,5.2,1.6,7.9C159,124.2,159.5,129.7,159.3,135.2z M170.5,102.9
				c-2,1.8-4.2,3.3-6.5,4.6c-1.8-7.5-4-14.9-6.4-22.4c7.3-1.4,14.8-2.6,22.2-3.6C179.8,89.6,176.6,97.6,170.5,102.9z"/>
		</g>
		<g>
			<path class="st3" d="M234.1,161.1c-10.1,0-18-1.9-24.8-7.4c-1.6-1.3-1.6-3.6-0.2-5l4.8-4.8c1.2-1.2,3.1-1.3,4.5-0.3
				c4.5,3.3,10,4.5,15.9,4.5c8.7,0,13.4-3.3,13.4-9.3c0-2.7-0.7-4.9-2.4-6.3c-1.5-1.4-3.2-2.1-6.6-2.7l-9.1-1.3
				c-6.4-1-11.2-3-14.7-6.2c-3.6-3.6-5.4-8.5-5.4-14.8c0-13.5,10-22.9,26.2-22.9c8.9,0,15.6,1.9,21.5,6.3c1.6,1.2,1.7,3.7,0.3,5
				l-4.6,4.6c-1.2,1.2-3,1.3-4.4,0.3c-4.3-3-9-3.4-13.3-3.4c-7.8,0-11.7,4.4-11.7,9.5c0,1.9,0.6,4,2.2,5.4c1.5,1.4,4,2.6,7,3
				l8.9,1.3c6.9,1,11.2,2.9,14.4,5.8c4.1,3.9,5.8,9.3,5.8,16C262,152.8,249.8,161.1,234.1,161.1z"/>
			<path class="st3" d="M337.5,160.4h-7.1c-1.5,0-2.8-1-3.3-2.4l-9.9-32.7c-1-3.2-5.5-3.2-6.5,0l-9.9,32.7c-0.4,1.4-1.8,2.4-3.3,2.4
				h-7.1c-1.6,0-2.9-1-3.3-2.5l-18.3-68.6c-0.6-2.2,1.1-4.3,3.3-4.3h8.3c1.6,0,3,1.1,3.3,2.6l8,32.7c0.8,3.4,5.5,3.5,6.5,0.1
				l9.5-32.9c0.4-1.5,1.8-2.5,3.3-2.5h5.9c1.5,0,2.9,1,3.3,2.5l9.5,33c1,3.4,5.7,3.3,6.5-0.1l8.1-32.7c0.4-1.5,1.8-2.6,3.3-2.6h8.3
				c2.3,0,3.9,2.1,3.3,4.3l-18.4,68.6C340.4,159.5,339.1,160.4,337.5,160.4z"/>
			<path class="st3" d="M410.2,158.2l-2.9-8.7c-0.5-1.4-1.8-2.3-3.3-2.3h-21.9c-1.5,0-2.8,0.9-3.2,2.3l-3,8.7
				c-0.5,1.4-1.8,2.3-3.2,2.3h-8.2c-2.4,0-4-2.4-3.2-4.6l24.9-68.6c0.5-1.4,1.8-2.3,3.2-2.3h6.8c1.4,0,2.7,0.9,3.2,2.3l25,68.6
				c0.8,2.2-0.8,4.6-3.2,4.6h-8C412,160.4,410.7,159.6,410.2,158.2z M390.2,116.7l-4.8,13.6c-0.8,2.2,0.9,4.6,3.2,4.6h9.2
				c2.3,0,4-2.3,3.3-4.5l-4.6-13.6C395.5,113.7,391.2,113.6,390.2,116.7z"/>
			<path class="st3" d="M464.9,132.1h-11.2c-1.9,0-3.4,1.5-3.4,3.4v21.6c0,1.9-1.5,3.4-3.4,3.4h-7.9c-1.9,0-3.4-1.5-3.4-3.4V88.5
				c0-1.9,1.5-3.4,3.4-3.4h25.8c15.5,0,24.8,10.7,24.8,23.5C489.8,121.4,480.5,132.1,464.9,132.1z M464.2,98.2h-10.4
				c-1.9,0-3.4,1.5-3.4,3.4v13.9c0,1.9,1.5,3.4,3.4,3.4h10.4c6.6,0,10.9-4.2,10.9-10.3C475,102.4,470.8,98.2,464.2,98.2z"/>
		</g>
	</g>
</g>
</svg>
