<svg width="375" height="61" viewBox="0 0 375 61" fill="none" xmlns="http://www.w3.org/2000/svg">
<path fill-rule="evenodd" clip-rule="evenodd" d="M0 24.4736L5.625 25.4736C13.125 26.4736 24.375 28.4736 37.5 31.4736C50.625 34.4736 61.875 38.4736 75 34.4736C88.125 30.4736 99.375 18.4736 112.5 20.4736C125.625 22.4736 136.875 38.4736 150 44.4736C163.125 50.4736 174.375 46.4736 187.5 44.4736C200.625 42.4736 211.875 42.4736 225 37.4736C238.125 32.4736 249.375 22.4736 262.5 20.4736C275.625 18.4736 286.875 24.4736 300 27.4736C313.125 30.4736 324.375 30.4736 337.5 25.4736C350.625 20.4736 361.875 10.4736 369.375 5.47363L375 0.473633V60.4736H369.375C361.875 60.4736 350.625 60.4736 337.5 60.4736C324.375 60.4736 313.125 60.4736 300 60.4736C286.875 60.4736 275.625 60.4736 262.5 60.4736C249.375 60.4736 238.125 60.4736 225 60.4736C211.875 60.4736 200.625 60.4736 187.5 60.4736C174.375 60.4736 163.125 60.4736 150 60.4736C136.875 60.4736 125.625 60.4736 112.5 60.4736C99.375 60.4736 88.125 60.4736 75 60.4736C61.875 60.4736 50.625 60.4736 37.5 60.4736C24.375 60.4736 13.125 60.4736 5.625 60.4736H0V24.4736Z" fill="#FEF8E3"/>
</svg>
