<svg width="226" height="12" viewBox="0 0 226 12" fill="none" xmlns="http://www.w3.org/2000/svg">
<path d="M2.5 2C5.21195 3.47255 8.64056 5.33424 11.5078 6.89109C15.079 8.8302 19.3883 8.82988 22.9595 6.89078L26.2405 5.10923C29.8117 3.17012 34.1216 3.17012 37.6928 5.10922L40.9738 6.89077C44.545 8.82988 48.855 8.82988 52.4262 6.89077L55.7072 5.10923C59.2784 3.17012 63.5883 3.17012 67.1595 5.10922L70.4405 6.89078C74.0117 8.82988 78.3216 8.82988 81.8928 6.89078L85.1738 5.10923C88.745 3.17012 93.055 3.17012 96.6262 5.10923L99.9072 6.89077C103.478 8.82988 107.788 8.82988 111.359 6.89078L114.641 5.10922C118.212 3.17011 122.522 3.17012 126.093 5.10922L129.374 6.89078C132.945 8.82988 137.255 8.82988 140.826 6.89078L144.107 5.10922C147.678 3.17011 151.988 3.17012 155.559 5.10922L158.841 6.89078C162.412 8.82988 166.722 8.82988 170.293 6.89078L173.574 5.10922C177.145 3.17011 181.455 3.17012 185.026 5.10923L188.307 6.89077C191.878 8.82988 196.188 8.82988 199.759 6.89077L203.041 5.10922C206.612 3.17012 210.922 3.17012 214.493 5.10922L223.5 10" stroke="#F6A128" stroke-width="4" stroke-linecap="round"/>
</svg>
